<svg clip-rule="evenodd" fill-rule="evenodd" stroke-linejoin="round" stroke-miterlimit="2" viewBox="0 0 40 40" xmlns="http://www.w3.org/2000/svg"><path d="m31.28 34-9.648-9.624c-.701.533-1.523.951-2.466 1.253s-1.971.453-3.083.453c-2.805 0-5.187-.98-7.145-2.941-1.959-1.961-2.938-4.322-2.938-7.082 0-2.784.979-5.156 2.938-7.117 1.958-1.961 4.328-2.942 7.108-2.942 2.781 0 5.145.981 7.091 2.942 1.947 1.961 2.92 4.333 2.92 7.117 0 1.09-.151 2.095-.453 3.015s-.732 1.767-1.288 2.542l9.684 9.66zm-15.197-11.731c1.741 0 3.204-.605 4.389-1.815 1.184-1.211 1.777-2.676 1.777-4.395 0-1.743-.599-3.22-1.796-4.43-1.197-1.211-2.654-1.816-4.37-1.816-1.766 0-3.253.605-4.461 1.816-1.209 1.21-1.814 2.687-1.814 4.43 0 1.719.605 3.184 1.814 4.395 1.208 1.21 2.695 1.815 4.461 1.815z" fill="#a8a8a8" fill-rule="nonzero"/></svg>