<?xml version="1.0" encoding="UTF-8" standalone="no"?>
<!DOCTYPE svg PUBLIC "-//W3C//DTD SVG 1.1//EN" "http://www.w3.org/Graphics/SVG/1.1/DTD/svg11.dtd">
<svg width="100%" height="100%" viewBox="0 0 1200 1200" version="1.1" xmlns="http://www.w3.org/2000/svg" xmlns:xlink="http://www.w3.org/1999/xlink" xml:space="preserve" xmlns:serif="http://www.serif.com/" style="fill-rule:evenodd;clip-rule:evenodd;stroke-linejoin:round;stroke-miterlimit:2;">
    <g id="logo_drk" transform="matrix(2.01594,0,0,2.01594,-0.0045943,-248.58)">
        <g id="Layer_1-2">
            <g id="logo_drk1" serif:id="logo_drk">
                <g id="logo">
                    <path id="base" d="M520.95,50.71C398.58,50.71 299.38,149.91 299.38,272.28C299.38,394.65 398.58,493.85 520.95,493.85C643.32,493.85 742.52,394.65 742.52,272.28C742.52,149.91 643.32,50.71 520.95,50.71ZM520.95,293.53C509.22,293.53 499.71,284.02 499.71,272.29C499.71,260.56 509.22,251.05 520.95,251.05C532.68,251.05 542.19,260.56 542.19,272.29C542.19,284.02 532.68,293.53 520.95,293.53Z" style="fill:rgb(102,102,102);fill-rule:nonzero;"/>
                    <g id="shine">
                        <path d="M513.84,292.35L446.34,482.83C414.69,471.61 386.31,453.45 363.05,430.19C339.78,406.92 321.63,378.55 310.41,346.88L500.87,279.4C503.02,285.42 507.8,290.22 513.83,292.35L513.84,292.35Z" style="fill:rgb(170,170,170);fill-rule:nonzero;"/>
                    </g>
                    <g id="shine-2">
                        <path d="M528.07,252.21L595.57,61.73C627.22,72.95 655.6,91.11 678.86,114.37C702.13,137.64 720.28,166.01 731.5,197.68L541.04,265.16C538.89,259.14 534.11,254.34 528.08,252.21L528.07,252.21Z" style="fill:rgb(170,170,170);fill-rule:nonzero;"/>
                    </g>
                    <path id="groove5" d="M520.95,62.92C576.87,62.92 629.45,84.7 668.99,124.24C708.53,163.78 730.31,216.36 730.31,272.28C730.31,328.2 708.53,380.78 668.99,420.32C629.45,459.86 576.87,481.64 520.95,481.64C465.03,481.64 412.45,459.86 372.91,420.32C333.37,380.78 311.59,328.2 311.59,272.28C311.59,216.36 333.37,163.78 372.91,124.24C412.45,84.7 465.03,62.92 520.95,62.92M520.95,48.97C397.62,48.97 297.63,148.95 297.63,272.29C297.63,395.63 397.61,495.61 520.95,495.61C644.29,495.61 744.27,395.63 744.27,272.29C744.27,148.95 644.29,48.97 520.95,48.97Z" style="fill-rule:nonzero;"/>
                    <path id="groove4" d="M520.95,90.84C621,90.84 702.39,172.24 702.39,272.28C702.39,372.32 620.99,453.72 520.95,453.72C420.91,453.72 339.51,372.32 339.51,272.28C339.51,172.24 420.91,90.84 520.95,90.84ZM520.95,76.88C413.03,76.88 325.55,164.36 325.55,272.28C325.55,380.2 413.03,467.68 520.95,467.68C628.87,467.68 716.35,380.2 716.35,272.28C716.35,164.36 628.87,76.88 520.95,76.88Z" style="fill-rule:nonzero;"/>
                    <path id="groove3" d="M520.95,118.75C605.61,118.75 674.48,187.62 674.48,272.28C674.48,356.94 605.61,425.81 520.95,425.81C436.29,425.81 367.42,356.94 367.42,272.28C367.42,187.62 436.29,118.75 520.95,118.75ZM520.95,104.8C428.45,104.8 353.46,179.79 353.46,272.29C353.46,364.79 428.45,439.78 520.95,439.78C613.45,439.78 688.44,364.79 688.44,272.29C688.44,179.79 613.45,104.8 520.95,104.8Z" style="fill-rule:nonzero;"/>
                    <path id="groove2" d="M520.95,146.67C590.21,146.67 646.57,203.02 646.57,272.29C646.57,341.56 590.22,397.91 520.95,397.91C451.68,397.91 395.33,341.56 395.33,272.29C395.33,203.02 451.68,146.67 520.95,146.67ZM520.95,132.71C443.87,132.71 381.38,195.2 381.38,272.28C381.38,349.36 443.87,411.85 520.95,411.85C598.03,411.85 660.52,349.36 660.52,272.28C660.52,195.2 598.03,132.71 520.95,132.71Z" style="fill-rule:nonzero;"/>
                    <path id="groove1" d="M520.95,174.58C574.82,174.58 618.65,218.41 618.65,272.28C618.65,326.15 574.82,369.98 520.95,369.98C467.08,369.98 423.25,326.15 423.25,272.28C423.25,218.41 467.08,174.58 520.95,174.58ZM520.95,160.63C459.28,160.63 409.29,210.62 409.29,272.29C409.29,333.96 459.28,383.95 520.95,383.95C582.62,383.95 632.61,333.96 632.61,272.29C632.61,210.62 582.62,160.63 520.95,160.63Z" style="fill-rule:nonzero;"/>
                    <path id="center-label" d="M520.95,174.58C466.99,174.58 423.25,218.32 423.25,272.28C423.25,326.24 466.99,369.98 520.95,369.98C574.91,369.98 618.65,326.24 618.65,272.28C618.65,218.32 574.91,174.58 520.95,174.58ZM520.95,284.5C514.21,284.5 508.74,279.03 508.74,272.29C508.74,265.55 514.21,260.08 520.95,260.08C527.69,260.08 533.16,265.55 533.16,272.29C533.16,279.03 527.69,284.5 520.95,284.5Z" style="fill:rgb(212,66,7);fill-rule:nonzero;"/>
                </g>
            </g>
        </g>
    </g>
</svg>
