<svg viewBox="0 0 624 324" xmlns="http://www.w3.org/2000/svg"><path d="m0 0h624v324h-624z" fill="#333"/><g fill="#fff"><path d="m336.43 57.69h12.74c1.93 0 3.75.21 5.44.64 1.7.43 3.16 1.08 4.4 1.96s2.21 1.99 2.91 3.35 1.05 2.97 1.05 4.83c-.02 1.13-.21 2.18-.59 3.16s-.91 1.84-1.6 2.58c-.49.55-1.04 1.03-1.65 1.44s-1.32.78-2.12 1.11v.05c1.18.31 2.2.76 3.04 1.35s1.54 1.26 2.11 2.01c.58.8 1.03 1.69 1.33 2.67s.45 2 .45 3.08c.02 1.9-.32 3.56-1.01 5s-1.65 2.64-2.87 3.61c-1.22.98-2.68 1.73-4.36 2.23-1.69.5-3.51.75-5.48.75h-13.78v-39.81zm12.88 16.82c1.07-.02 2.06-.16 2.97-.44s1.66-.67 2.28-1.2c.56-.47 1.01-1.05 1.34-1.72s.49-1.45.49-2.32c0-.93-.15-1.74-.45-2.42s-.72-1.24-1.27-1.68c-.62-.55-1.39-.94-2.32-1.19s-1.96-.38-3.09-.4h-6.21v11.38h6.26zm-6.26 17.58h7.22c1.04 0 1.99-.15 2.84-.44.86-.29 1.59-.69 2.19-1.2.66-.53 1.16-1.18 1.52-1.96.36-.77.53-1.64.53-2.58 0-1-.15-1.89-.44-2.67-.29-.77-.73-1.44-1.31-1.98-.58-.55-1.29-.97-2.13-1.27s-1.8-.46-2.87-.48h-7.55z"/><path d="m391.54 67.59c.99.15 1.77.32 2.34.52l-.93 6.45c-1-.22-1.99-.38-2.97-.49s-1.95-.16-2.91-.16c-1.09 0-2.08.11-2.95.33s-1.65.56-2.32 1.01c-.73.44-1.35.99-1.86 1.67-.51.67-.94 1.45-1.29 2.32v18.27h-6.54v-29.59h6.12l.27 4.1.03.68c1.2-1.66 2.65-2.96 4.33-3.91 1.69-.95 3.55-1.42 5.59-1.42 1.06 0 2.08.07 3.08.22z"/><path d="m416.58 67.92v24.17h8.7v5.41h-24.39v-5.41h9.11v-18.73h-9.11v-5.44h15.7zm-6.92-9.12c.18-.45.45-.83.79-1.16.33-.31.72-.55 1.19-.72.46-.17.99-.26 1.57-.26.98 0 1.78.25 2.39.75s.96 1.14 1.05 1.93c.13.8 0 1.5-.41 2.09-.4.59-.98.99-1.75 1.19-.38.35-.84.57-1.37.68s-1.11.06-1.75-.14c-.66-.2-1.15-.56-1.49-1.08s-.51-1.12-.51-1.82c0-.53.09-1.02.27-1.46z"/><path d="m442.19 67.92h11.13v4.89h-11.13v14.14c0 1.09.13 2.01.4 2.75.26.74.63 1.32 1.11 1.74.47.44 1.04.75 1.7.93s1.38.27 2.16.27c.56 0 1.15-.03 1.75-.08s1.18-.13 1.75-.22c.55-.07 1.06-.16 1.54-.26s.89-.19 1.22-.26l.71 4.51c-.47.29-1.04.54-1.71.75s-1.38.39-2.15.53-1.56.26-2.39.34-1.65.12-2.47.12c-1.5 0-2.87-.21-4.12-.62s-2.32-1.05-3.21-1.93c-.89-.86-1.59-1.96-2.09-3.31s-.75-2.97-.75-4.87v-14.55h-7.16v-4.89h7.16v-7.22h6.56v7.22z"/><path d="m478.19 67.92v24.17h8.7v5.41h-24.39v-5.41h9.11v-18.73h-9.11v-5.44h15.7zm-6.92-9.12c.18-.45.45-.83.79-1.16.33-.31.72-.55 1.19-.72.46-.17.99-.26 1.57-.26.98 0 1.78.25 2.39.75s.96 1.14 1.05 1.93c.13.8 0 1.5-.41 2.09-.4.59-.98.99-1.75 1.19-.38.35-.84.57-1.37.68s-1.11.06-1.75-.14c-.66-.2-1.15-.56-1.49-1.08s-.51-1.12-.51-1.82c0-.53.09-1.02.27-1.46z"/><path d="m511.91 88.12c-.23-.4-.61-.78-1.13-1.15-.57-.33-1.3-.64-2.21-.93s-2.05-.56-3.42-.82c-1.71-.35-3.28-.77-4.69-1.29-1.41-.51-2.63-1.13-3.65-1.86-1-.69-1.79-1.51-2.35-2.46-.57-.95-.85-2.05-.85-3.31s.29-2.35.86-3.43 1.4-2.04 2.47-2.86c1.06-.82 2.34-1.47 3.84-1.94s3.18-.71 5.02-.71c1.97 0 3.74.24 5.3.72 1.57.48 2.9 1.14 3.99 1.98 1.07.84 1.9 1.83 2.49 2.98.58 1.15.88 2.39.88 3.72h-6.54c0-.55-.12-1.07-.34-1.57-.23-.5-.56-.95-1-1.35-.51-.47-1.17-.85-1.97-1.13s-1.74-.42-2.82-.42c-.98 0-1.85.11-2.58.31-.74.21-1.35.5-1.82.86-.47.33-.83.72-1.07 1.16-.24.45-.36.92-.36 1.41s.1.97.3 1.38.55.77 1.07 1.08c.47.33 1.13.63 1.98.9s1.92.52 3.21.74c1.8.33 3.45.73 4.95 1.2 1.49.47 2.77 1.06 3.83 1.75 1.06.73 1.88 1.59 2.46 2.57s.88 2.15.88 3.5-.31 2.52-.92 3.61-1.47 2.03-2.58 2.82c-1.13.78-2.48 1.39-4.05 1.83s-3.31.66-5.22.66c-2.13 0-4.03-.28-5.67-.85-1.65-.56-3.03-1.31-4.14-2.24-1.13-.91-1.99-1.96-2.57-3.14s-.88-2.39-.88-3.61h6.34c.05.91.29 1.68.72 2.31s.97 1.13 1.63 1.52c.64.4 1.37.69 2.19.86s1.65.26 2.49.26c1.13 0 2.12-.12 2.97-.36s1.53-.56 2.04-.96c.42-.33.73-.69.94-1.08s.31-.82.31-1.3c0-.51-.12-.97-.34-1.37z"/><path d="m534.34 70.51c.47-.49.97-.92 1.5-1.29.82-.6 1.73-1.06 2.72-1.38s2.04-.48 3.16-.48c1.55 0 2.97.23 4.25.68 1.29.46 2.38 1.17 3.29 2.13.91.97 1.62 2.2 2.12 3.71.5 1.5.75 3.3.75 5.4v18.21h-6.54v-18.27c0-1.09-.13-2.05-.4-2.87s-.65-1.49-1.16-2c-.53-.55-1.17-.95-1.93-1.22-.76-.26-1.63-.4-2.61-.4-.77 0-1.49.09-2.17.27s-1.31.45-1.87.79c-.47.27-.92.6-1.33.98s-.77.81-1.08 1.29v21.41h-6.54v-42h6.54v16.62c.38-.58.81-1.12 1.29-1.61z"/><path d="m343.13 139.05v15.45h-6.56v-39.81h12.63c2.06.02 3.96.28 5.69.79s3.23 1.26 4.48 2.24c1.24 1 2.21 2.25 2.9 3.73.69 1.49 1.04 3.22 1.04 5.21 0 1.37-.18 2.61-.53 3.72-.36 1.11-.85 2.12-1.49 3.01s-1.4 1.68-2.3 2.35c-.89.67-1.89 1.26-2.98 1.75l8.5 16.65v.36h-7.03l-7.63-15.45h-6.73zm6.15-5.36c1.17-.02 2.22-.2 3.16-.53.94-.34 1.74-.82 2.39-1.46.58-.55 1.04-1.22 1.37-2.02s.49-1.71.49-2.73c0-1.15-.18-2.16-.53-3.02-.36-.87-.88-1.59-1.57-2.17-.64-.55-1.41-.96-2.32-1.24s-1.93-.43-3.06-.45h-6.07v13.64h6.15z"/><path d="m378.06 153.96c-1.81-.73-3.37-1.74-4.66-3.04-1.29-1.28-2.29-2.78-2.99-4.53-.7-1.74-1.05-3.62-1.05-5.65v-1.12c0-2.31.36-4.41 1.09-6.29s1.73-3.48 3.01-4.81 2.76-2.36 4.44-3.08c1.69-.72 3.49-1.08 5.4-1.08 2.13 0 4.02.36 5.66 1.08s3.02 1.72 4.13 2.99c1.11 1.29 1.95 2.83 2.52 4.62.56 1.79.85 3.74.85 5.85v2.82h-20.51v.14c.2 1.29.51 2.38.93 3.25.42.88.99 1.66 1.72 2.35.73.73 1.59 1.29 2.58 1.7.99.4 2.08.6 3.27.6 1.62 0 3.13-.31 4.54-.94 1.4-.63 2.56-1.53 3.47-2.69l3.5 3.39c-.98 1.42-2.49 2.7-4.53 3.83-2.03 1.13-4.49 1.7-7.37 1.7-2.19 0-4.19-.37-6-1.09zm2.63-23.78c-.79.34-1.5.82-2.12 1.44-.62.64-1.14 1.4-1.56 2.3-.42.89-.73 1.91-.93 3.04h13.92v-.44c0-.86-.16-1.71-.46-2.56-.31-.85-.75-1.59-1.31-2.23-.55-.62-1.24-1.12-2.06-1.49-.83-.37-1.79-.56-2.88-.56-.93 0-1.79.17-2.58.51z"/><path d="m419.1 149.43c.76-.25 1.43-.6 2.01-1.05.56-.46 1.02-.99 1.35-1.61.34-.62.51-1.3.51-2.05h6.15c.02 1.44-.31 2.79-.97 4.06-.67 1.27-1.56 2.36-2.69 3.27-1.15.95-2.47 1.69-3.95 2.23-1.49.54-3.05.81-4.69.81-2.28 0-4.27-.4-5.97-1.19-1.71-.79-3.12-1.86-4.25-3.21-1.15-1.35-2.02-2.92-2.6-4.72-.58-1.79-.88-3.71-.88-5.76v-.96c0-2.02.29-3.94.86-5.74s1.44-3.38 2.58-4.73c1.15-1.35 2.57-2.42 4.28-3.21 1.7-.79 3.69-1.19 5.95-1.19 1.79 0 3.44.27 4.96.82s2.83 1.31 3.92 2.3 1.95 2.16 2.56 3.53.91 2.87.89 4.51h-6.15c0-.8-.15-1.56-.45-2.27s-.72-1.33-1.27-1.86c-.57-.53-1.24-.95-2.01-1.26-.78-.31-1.61-.46-2.5-.46-1.37 0-2.5.28-3.4.83-.9.56-1.62 1.28-2.15 2.17-.57.89-.96 1.91-1.19 3.06s-.34 2.32-.34 3.5v.96c0 1.2.11 2.38.34 3.54s.62 2.17 1.16 3.05c.53.91 1.25 1.64 2.16 2.19s2.05.82 3.42.82c.82 0 1.61-.12 2.37-.37z"/><path d="m437.19 133.46c.62-1.83 1.52-3.42 2.71-4.77 1.17-1.35 2.6-2.41 4.29-3.17s3.63-1.15 5.8-1.15 4.11.38 5.81 1.15 3.15 1.82 4.33 3.17c1.17 1.35 2.06 2.94 2.68 4.77s.93 3.82.93 5.97v.57c0 2.17-.31 4.17-.93 5.99s-1.51 3.41-2.68 4.76-2.6 2.41-4.31 3.17c-1.71.77-3.63 1.15-5.78 1.15s-4.11-.38-5.82-1.15-3.15-1.82-4.32-3.17c-1.19-1.35-2.09-2.93-2.71-4.76-.62-1.82-.93-3.82-.93-5.99v-.57c0-2.15.31-4.14.93-5.97zm6.03 10.32c.28 1.19.72 2.22 1.33 3.12.58.89 1.33 1.6 2.24 2.12s2 .78 3.25.78 2.29-.26 3.2-.78 1.66-1.23 2.24-2.12 1.02-1.93 1.3-3.12c.28-1.18.42-2.44.42-3.77v-.57c0-1.29-.15-2.53-.44-3.72-.29-1.18-.72-2.22-1.29-3.12-.6-.89-1.35-1.6-2.26-2.13-.9-.53-1.98-.79-3.24-.79s-2.31.26-3.21.79-1.65 1.24-2.23 2.13c-.6.89-1.04 1.93-1.33 3.12-.28 1.19-.42 2.42-.42 3.72v.57c0 1.33.14 2.59.42 3.77z"/><path d="m491.8 124.59c.99.15 1.77.32 2.34.52l-.93 6.45c-1-.22-1.99-.38-2.97-.49s-1.95-.16-2.91-.16c-1.09 0-2.08.11-2.95.33s-1.65.56-2.32 1.01c-.73.44-1.35.99-1.86 1.67-.51.67-.94 1.45-1.29 2.32v18.27h-6.54v-29.59h6.12l.27 4.1.03.68c1.2-1.66 2.65-2.96 4.33-3.91 1.69-.95 3.55-1.42 5.59-1.42 1.06 0 2.08.07 3.08.22z"/><path d="m500.69 133.35c.54-1.85 1.32-3.44 2.34-4.77 1-1.33 2.23-2.37 3.68-3.1s3.08-1.11 4.91-1.11c1.64 0 3.08.29 4.31.86s2.32 1.39 3.27 2.45v-15.18h6.54v42h-5.93l-.3-3.09c-.95 1.17-2.08 2.06-3.39 2.69s-2.83.94-4.54.94c-1.8 0-3.43-.38-4.87-1.13-1.44-.76-2.66-1.81-3.66-3.16-1-1.33-1.78-2.91-2.32-4.74s-.82-3.81-.82-5.95v-.57c0-2.24.27-4.29.81-6.14zm6.11 10.43c.25 1.17.66 2.18 1.2 3.04.55.89 1.25 1.59 2.11 2.09s1.89.75 3.09.75c1.48 0 2.7-.32 3.66-.97s1.74-1.53 2.32-2.64v-12.71c-.58-1.09-1.35-1.96-2.31-2.61s-2.17-.97-3.62-.97c-1.22 0-2.27.26-3.13.77-.87.51-1.56 1.21-2.09 2.11-.57.89-.98 1.93-1.23 3.1-.26 1.18-.38 2.43-.38 3.76v.57c0 1.31.13 2.55.38 3.72z"/><path d="m356.66 198.79c-.38-.71-.92-1.35-1.61-1.91-.73-.53-1.59-1.01-2.58-1.44s-2.1-.82-3.32-1.16c-1.88-.53-3.61-1.18-5.18-1.96-1.58-.77-2.92-1.64-4.03-2.61-1.11-.98-1.98-2.1-2.61-3.35s-.94-2.66-.94-4.22c0-1.7.36-3.22 1.09-4.58s1.71-2.52 2.95-3.49c1.24-.95 2.68-1.67 4.33-2.17s3.38-.75 5.21-.75c1.93 0 3.73.3 5.4.89s3.12 1.42 4.36 2.47c1.24 1.08 2.22 2.36 2.94 3.84.72 1.49 1.08 3.13 1.08 4.94h-6.51c-.09-1-.31-1.92-.64-2.75-.34-.83-.81-1.54-1.41-2.15-.62-.58-1.37-1.04-2.26-1.38-.88-.34-1.9-.51-3.05-.51-1 0-1.93.13-2.78.4-.85.26-1.58.63-2.2 1.11-.62.49-1.1 1.08-1.45 1.78-.35.69-.52 1.47-.52 2.32.02.91.25 1.71.71 2.39s1.07 1.28 1.83 1.79c.78.51 1.68.96 2.69 1.34s2.07.74 3.19 1.07c1.4.4 2.78.9 4.12 1.49s2.57 1.31 3.71 2.15c1.4 1.06 2.53 2.32 3.38 3.79s1.27 3.16 1.27 5.07c0 1.77-.37 3.33-1.11 4.68s-1.73 2.47-2.97 3.36c-1.26.93-2.72 1.63-4.38 2.09s-3.41.7-5.25.7c-1.95 0-3.88-.31-5.77-.92-1.9-.61-3.55-1.5-4.95-2.67-1.29-1.09-2.32-2.38-3.08-3.86s-1.14-3.17-1.16-5.09h6.56c.09 1.22.35 2.28.78 3.19.43.9 1.02 1.65 1.76 2.23.73.6 1.59 1.05 2.58 1.34s2.08.44 3.27.44c1 0 1.94-.12 2.8-.36.87-.24 1.62-.59 2.26-1.07.62-.46 1.12-1.02 1.49-1.7.37-.67.56-1.45.56-2.32 0-.93-.19-1.75-.57-2.46z"/><path d="m378.07 184.51c.47-.49.97-.92 1.5-1.29.82-.6 1.73-1.06 2.72-1.38s2.04-.48 3.16-.48c1.55 0 2.97.23 4.25.68 1.29.46 2.38 1.17 3.29 2.13.91.97 1.62 2.2 2.12 3.71.5 1.5.75 3.3.75 5.4v18.21h-6.54v-18.27c0-1.09-.13-2.05-.4-2.87s-.65-1.49-1.16-2c-.53-.55-1.17-.95-1.93-1.22-.76-.26-1.63-.4-2.61-.4-.77 0-1.49.09-2.17.27s-1.31.45-1.87.79c-.47.27-.92.6-1.33.98s-.77.81-1.08 1.29v21.41h-6.54v-42h6.54v16.62c.38-.58.81-1.12 1.29-1.61z"/><path d="m403.59 190.46c.62-1.83 1.52-3.42 2.71-4.77 1.17-1.35 2.6-2.41 4.29-3.17s3.63-1.15 5.8-1.15 4.11.38 5.81 1.15 3.15 1.82 4.33 3.17c1.17 1.35 2.06 2.94 2.68 4.77s.93 3.82.93 5.97v.57c0 2.17-.31 4.17-.93 5.99s-1.51 3.41-2.68 4.76-2.6 2.41-4.31 3.17c-1.71.77-3.63 1.15-5.78 1.15s-4.11-.38-5.82-1.15-3.15-1.82-4.32-3.17c-1.19-1.35-2.09-2.93-2.71-4.76-.62-1.82-.93-3.82-.93-5.99v-.57c0-2.15.31-4.14.93-5.97zm6.03 10.32c.28 1.19.72 2.22 1.33 3.12.58.89 1.33 1.6 2.24 2.12s2 .78 3.25.78 2.29-.26 3.2-.78 1.66-1.23 2.24-2.12 1.02-1.93 1.3-3.12c.28-1.18.42-2.44.42-3.77v-.57c0-1.29-.15-2.53-.44-3.72-.29-1.18-.72-2.22-1.29-3.12-.6-.89-1.35-1.6-2.26-2.13-.9-.53-1.98-.79-3.24-.79s-2.31.26-3.21.79-1.65 1.24-2.23 2.13c-.6.89-1.04 1.93-1.33 3.12-.28 1.19-.42 2.42-.42 3.72v.57c0 1.33.14 2.59.42 3.77z"/><path d="m437.52 181.92h6.02l.25 3.04c.4-.49.84-.94 1.31-1.34s.98-.75 1.53-1.04c.71-.38 1.49-.68 2.34-.89s1.76-.31 2.75-.31c1.89 0 3.57.37 5.02 1.09 1.45.73 2.67 1.76 3.65 3.09s1.73 2.92 2.23 4.77.75 3.89.75 6.11v.57c0 2.13-.25 4.12-.75 5.96s-1.24 3.43-2.23 4.76c-.98 1.35-2.2 2.41-3.64 3.17-1.44.77-3.09 1.15-4.95 1.15-1.06 0-2.03-.11-2.91-.33s-1.7-.54-2.45-.96c-.44-.25-.86-.55-1.26-.88s-.78-.68-1.12-1.07v14.05h-6.54v-40.96zm18.91 10.76c-.27-1.18-.67-2.2-1.22-3.08-.57-.88-1.29-1.57-2.16-2.08-.88-.51-1.92-.77-3.14-.77-.68 0-1.3.07-1.89.22-.58.15-1.1.36-1.56.63-.53.29-.99.66-1.38 1.09-.39.44-.73.93-1.03 1.48v13.15c.25.51.56.98.93 1.41.36.43.78.79 1.26 1.08.49.29 1.05.52 1.67.7.62.17 1.31.26 2.08.26 1.2 0 2.24-.26 3.1-.78.87-.52 1.58-1.23 2.15-2.12.55-.91.95-1.96 1.2-3.13.25-1.18.38-2.42.38-3.73v-.57c0-1.33-.13-2.58-.4-3.76z"/><path d="m343.32 259.34-2.71 9.16h-6.84l12.96-39.81h5.82l12.74 39.81h-6.81l-2.68-9.16h-12.5zm10.88-5.63-4.57-15.75-4.65 15.75h9.21z"/><path d="m392.66 238.59c.99.15 1.77.32 2.34.52l-.93 6.45c-1-.22-1.99-.38-2.97-.49s-1.95-.16-2.91-.16c-1.09 0-2.08.11-2.95.33s-1.65.56-2.32 1.01c-.73.44-1.35.99-1.86 1.67-.51.67-.94 1.45-1.29 2.32v18.27h-6.54v-29.59h6.12l.27 4.1.03.68c1.2-1.66 2.65-2.96 4.33-3.91 1.69-.95 3.55-1.42 5.59-1.42 1.06 0 2.08.07 3.08.22z"/><path d="m415.74 263.43c.76-.25 1.43-.6 2.01-1.05.56-.46 1.02-.99 1.35-1.61.34-.62.51-1.3.51-2.05h6.15c.02 1.44-.3 2.79-.97 4.06s-1.56 2.36-2.69 3.27c-1.15.95-2.46 1.69-3.95 2.23s-3.05.81-4.69.81c-2.28 0-4.27-.4-5.97-1.19s-3.12-1.86-4.25-3.21c-1.15-1.35-2.01-2.92-2.6-4.72-.58-1.79-.88-3.71-.88-5.76v-.96c0-2.02.29-3.94.86-5.74s1.44-3.38 2.58-4.73c1.15-1.35 2.57-2.42 4.28-3.21s3.69-1.19 5.95-1.19c1.79 0 3.44.27 4.96.82s2.83 1.31 3.92 2.3 1.95 2.16 2.56 3.53.91 2.87.89 4.51h-6.15c0-.8-.15-1.56-.45-2.27s-.72-1.33-1.27-1.86c-.56-.53-1.23-.95-2.01-1.26s-1.61-.46-2.5-.46c-1.37 0-2.5.28-3.4.83-.9.56-1.62 1.28-2.15 2.17-.56.89-.96 1.91-1.19 3.06s-.34 2.32-.34 3.5v.96c0 1.2.11 2.38.34 3.54s.62 2.17 1.16 3.05c.53.91 1.25 1.64 2.16 2.19s2.05.82 3.42.82c.82 0 1.61-.12 2.37-.37z"/><path d="m441.92 241.51c.47-.49.97-.92 1.5-1.29.82-.6 1.73-1.06 2.72-1.38s2.05-.48 3.16-.48c1.55 0 2.97.23 4.25.68 1.29.46 2.38 1.17 3.29 2.13.91.97 1.62 2.2 2.12 3.71s.75 3.3.75 5.4v18.21h-6.54v-18.27c0-1.09-.13-2.05-.4-2.87s-.65-1.49-1.16-2c-.53-.55-1.17-.95-1.93-1.22-.76-.26-1.63-.4-2.61-.4-.77 0-1.49.09-2.17.27s-1.31.45-1.87.79c-.47.27-.92.6-1.33.98s-.77.81-1.08 1.29v21.41h-6.54v-42h6.54v16.62c.38-.58.81-1.12 1.29-1.61z"/><path d="m484.35 238.92v24.17h8.7v5.41h-24.39v-5.41h9.11v-18.73h-9.11v-5.44h15.7zm-6.92-9.12c.18-.45.45-.83.79-1.16.33-.31.72-.55 1.19-.72.46-.17.99-.26 1.57-.26.98 0 1.78.25 2.39.75s.96 1.14 1.05 1.93c.13.8 0 1.5-.41 2.09-.4.59-.98.99-1.75 1.19-.38.35-.84.57-1.37.68s-1.11.06-1.75-.14c-.66-.2-1.15-.56-1.49-1.08s-.51-1.12-.51-1.82c0-.53.09-1.02.27-1.46z"/><path d="m495.99 238.92h6.78l7.33 21.46.44 1.97.44-1.97 7.25-21.46h6.78l-11.59 29.59h-5.77l-11.65-29.59z"/><path d="m538.25 267.96c-1.81-.73-3.37-1.74-4.66-3.04-1.29-1.28-2.29-2.78-2.99-4.53-.7-1.74-1.05-3.62-1.05-5.65v-1.12c0-2.31.36-4.41 1.09-6.29s1.73-3.48 3.01-4.81 2.76-2.36 4.44-3.08c1.69-.72 3.49-1.08 5.4-1.08 2.13 0 4.02.36 5.66 1.08s3.02 1.72 4.13 2.99c1.11 1.29 1.95 2.83 2.52 4.62.56 1.79.85 3.74.85 5.85v2.82h-20.51v.14c.2 1.29.51 2.38.93 3.25.42.88.99 1.66 1.72 2.35.73.73 1.59 1.29 2.58 1.7.99.4 2.08.6 3.27.6 1.62 0 3.13-.31 4.54-.94 1.4-.63 2.56-1.53 3.47-2.69l3.5 3.39c-.98 1.42-2.49 2.7-4.53 3.83-2.03 1.13-4.49 1.7-7.37 1.7-2.19 0-4.19-.37-6-1.09zm2.62-23.78c-.79.34-1.5.82-2.12 1.44-.62.64-1.14 1.4-1.56 2.3-.42.89-.73 1.91-.93 3.04h13.92v-.44c0-.86-.16-1.71-.46-2.56-.31-.85-.75-1.59-1.31-2.23-.55-.62-1.24-1.12-2.06-1.49-.83-.37-1.79-.56-2.88-.56-.93 0-1.79.17-2.58.51z"/></g><path d="m159 35c-70.14 0-127 56.86-127 127s56.86 127 127 127 127-56.86 127-127-56.86-127-127-127zm0 139.17c-6.72 0-12.18-5.45-12.18-12.18s5.45-12.18 12.18-12.18 12.18 5.45 12.18 12.18-5.45 12.18-12.18 12.18z" fill="#666"/><path d="m154.92 173.5-36.03 101.66-2.66 7.52c-18.14-6.43-34.41-16.84-47.74-30.17s-23.74-29.6-30.17-47.75l7.51-2.66 101.66-36.02c1.23 3.45 3.97 6.2 7.43 7.42z" fill="#aaa"/><path d="m279.68 119.23-7.52 2.66-101.66 36.03c-1.22-3.46-3.96-6.2-7.42-7.43l36.02-101.66 2.66-7.51c17.65 6.25 33.53 16.27 46.66 29.09l2.17 2.17c12.81 13.13 22.83 29 29.09 46.65z" fill="#aaa"/><path d="m279.68 119.23c-6.26-17.65-16.28-33.52-29.09-46.65l-2.17-2.17c-13.13-12.82-29.01-22.84-46.66-29.09-13.37-4.74-27.77-7.32-42.76-7.32-70.7 0-128 57.3-128 128 0 14.99 2.58 29.39 7.32 42.76 6.43 18.15 16.83 34.41 30.17 47.75 13.33 13.33 29.6 23.74 47.74 30.17 13.37 4.74 27.77 7.32 42.77 7.32 70.69 0 128-57.31 128-128 0-15-2.58-29.4-7.32-42.77zm-35.83 127.62c-22.67 22.66-52.8 35.15-84.85 35.15-13.88 0-27.4-2.34-40.11-6.84-16.64-5.88-31.9-15.46-44.75-28.31s-22.42-28.11-28.31-44.75c-4.49-12.71-6.83-26.23-6.83-40.1 0-32.06 12.48-62.19 35.14-84.86 22.67-22.66 52.8-35.14 84.86-35.14 13.87 0 27.39 2.34 40.1 6.83 16.64 5.89 31.9 15.46 44.75 28.31s22.43 28.11 28.31 44.75c4.5 12.71 6.84 26.23 6.84 40.11 0 32.05-12.49 62.18-35.15 84.85z"/><path d="m159 58c57.35 0 104 46.65 104 104s-46.65 104-104 104-104-46.65-104-104 46.65-104 104-104zm0-8c-61.86 0-112 50.14-112 112s50.14 112 112 112 112-50.14 112-112-50.14-112-112-112z"/><path d="m159 74c48.52 0 88 39.48 88 88s-39.48 88-88 88-88-39.48-88-88 39.48-88 88-88zm0-8c-53.02 0-96 42.98-96 96s42.98 96 96 96 96-42.98 96-96-42.98-96-96-96z"/><path d="m159 90c39.7 0 72 32.3 72 72s-32.3 72-72 72-72-32.3-72-72 32.3-72 72-72zm0-8c-44.18 0-80 35.82-80 80s35.82 80 80 80 80-35.82 80-80-35.82-80-80-80z"/><path d="m159 106c30.88 0 56 25.12 56 56s-25.12 56-56 56-56-25.12-56-56 25.12-56 56-56zm0-8c-35.35 0-64 28.65-64 64s28.65 64 64 64 64-28.65 64-64-28.65-64-64-64z"/><path d="m159 106c-30.93 0-56 25.07-56 56s25.07 56 56 56 56-25.07 56-56-25.07-56-56-56zm0 63c-3.87 0-7-3.13-7-7s3.13-7 7-7 7 3.13 7 7-3.13 7-7 7z" fill="#d44207"/></svg>