<svg viewBox="0 0 256 256" xmlns="http://www.w3.org/2000/svg"><path d="m128 1c-70.14 0-127 56.86-127 127s56.86 127 127 127 127-56.86 127-127-56.86-127-127-127zm0 139.17c-6.72 0-12.18-5.45-12.18-12.18s5.45-12.18 12.18-12.18 12.18 5.45 12.18 12.18-5.45 12.18-12.18 12.18z" fill="#666"/><path d="m123.92 139.5-36.03 101.66-2.66 7.52c-18.14-6.43-34.41-16.84-47.74-30.17s-23.74-29.6-30.17-47.75l7.51-2.66 101.66-36.02c1.23 3.45 3.97 6.2 7.43 7.42z" fill="#aaa"/><path d="m248.68 85.23-7.52 2.66-101.66 36.03c-1.22-3.46-3.96-6.2-7.42-7.43l36.02-101.66 2.66-7.51c17.65 6.25 33.53 16.27 46.66 29.09l2.17 2.17c12.81 13.13 22.83 29 29.09 46.65z" fill="#aaa"/><path d="m248.68 85.23c-6.26-17.65-16.28-33.52-29.09-46.65l-2.17-2.17c-13.13-12.82-29.01-22.84-46.66-29.09-13.37-4.74-27.77-7.32-42.76-7.32-70.7-0-128 57.3-128 128 0 14.99 2.58 29.39 7.32 42.76 6.43 18.15 16.83 34.41 30.17 47.75 13.33 13.33 29.6 23.74 47.74 30.17 13.37 4.74 27.77 7.32 42.77 7.32 70.69 0 128-57.31 128-128 0-15-2.58-29.4-7.32-42.77zm-35.83 127.62c-22.67 22.66-52.8 35.15-84.85 35.15-13.88 0-27.4-2.34-40.11-6.84-16.64-5.88-31.9-15.46-44.75-28.31s-22.42-28.11-28.31-44.75c-4.49-12.71-6.83-26.23-6.83-40.1 0-32.06 12.48-62.19 35.14-84.86 22.67-22.66 52.8-35.14 84.86-35.14 13.87 0 27.39 2.34 40.1 6.83 16.64 5.89 31.9 15.46 44.75 28.31s22.43 28.11 28.31 44.75c4.5 12.71 6.84 26.23 6.84 40.11 0 32.05-12.49 62.18-35.15 84.85z"/><path d="m128 24c57.35 0 104 46.65 104 104s-46.65 104-104 104-104-46.66-104-104 46.65-104 104-104zm0-8c-61.86 0-112 50.14-112 112s50.14 112 112 112 112-50.14 112-112-50.15-112-112-112z"/><path d="m128 40c48.52 0 88 39.48 88 88s-39.48 88-88 88-88-39.48-88-88 39.47-88 88-88zm0-8c-53.02 0-96 42.98-96 96s42.98 96 96 96 96-42.98 96-96-42.98-96-96-96z"/><path d="m128 56c39.7 0 72 32.3 72 72s-32.3 72-72 72-72-32.3-72-72 32.3-72 72-72zm0-8c-44.18 0-80 35.82-80 80s35.82 80 80 80 80-35.82 80-80-35.82-80-80-80z"/><path d="m128 72c30.88 0 56 25.12 56 56s-25.12 56-56 56-56-25.12-56-56 25.12-56 56-56zm0-8c-35.35 0-64 28.65-64 64s28.65 64 64 64 64-28.65 64-64-28.65-64-64-64z"/><path d="m128 72c-30.93 0-56 25.07-56 56s25.07 56 56 56 56-25.07 56-56-25.07-56-56-56zm0 63c-3.87 0-7-3.13-7-7s3.13-7 7-7 7 3.13 7 7-3.13 7-7 7z" fill="#d44207"/></svg>