<?xml version="1.0" encoding="UTF-8"?><svg id="Layer_2" xmlns="http://www.w3.org/2000/svg" viewBox="0 0 795 795"><g id="Layer_1-2"><g><path d="m397.5,24.8438c99.5399,0,193.1225,38.763,263.5077,109.1486,70.3856,70.3856,109.1486,163.9678,109.1486,263.5077s-38.763,193.1225-109.1486,263.5077c-70.3852,70.3856-163.9674,109.1486-263.5077,109.1486s-193.1221-38.763-263.5077-109.1486C63.6068,590.6225,24.8438,497.0399,24.8438,397.5s38.763-193.1221,109.1486-263.5077C204.3779,63.6068,297.9601,24.8438,397.5,24.8438m0-24.8438C177.967,0,0,177.967,0,397.5s177.967,397.5,397.5,397.5,397.5-177.9666,397.5-397.5S617.0334,0,397.5,0h0Z" style="fill:#333;"/><path d="m397.5002,248.4376c-82.3249,0-149.0625,66.7373-149.0625,149.0625s66.7376,149.0625,149.0625,149.0625,149.0625-66.7376,149.0625-149.0625-66.7376-149.0625-149.0625-149.0625Zm0,167.6953c-10.2907,0-18.6328-8.3422-18.6328-18.6328s8.3422-18.6328,18.6328-18.6328,18.6328,8.3422,18.6328,18.6328-8.3422,18.6328-18.6328,18.6328Z" style="fill:#cc4747;"/><path d="m397.5,74.5312c178.0857,0,322.9688,144.8831,322.9688,322.9688s-144.8831,322.9687-322.9688,322.9687S74.5313,575.5857,74.5313,397.5,219.4143,74.5312,397.5,74.5312m0-24.8438c-192.0914,0-347.8125,155.7211-347.8125,347.8125s155.7211,347.8125,347.8125,347.8125,347.8125-155.7208,347.8125-347.8125S589.5917,49.6875,397.5,49.6875h0Z" style="fill:#333;"/><path d="m397.5,124.2188c150.6876,0,273.2813,122.5936,273.2813,273.2813s-122.5936,273.2812-273.2813,273.2812S124.2188,548.1876,124.2188,397.5,246.8124,124.2188,397.5,124.2188m0-24.8438c-164.6497,0-298.125,133.4753-298.125,298.125s133.4753,298.125,298.125,298.125,298.125-133.4749,298.125-298.125S562.1501,99.375,397.5,99.375h0Z" style="fill:#333;"/><path d="m397.5,173.9063c123.29,0,223.5938,100.3038,223.5938,223.5938s-100.3038,223.5937-223.5938,223.5937-223.5937-100.3038-223.5937-223.5937,100.3038-223.5938,223.5937-223.5938m0-24.8438c-137.2081,0-248.4375,111.2294-248.4375,248.4375s111.2294,248.4375,248.4375,248.4375,248.4375-111.2294,248.4375-248.4375-111.229-248.4375-248.4375-248.4375h0Z" style="fill:#333;"/><path d="m397.5,223.5938c95.8923,0,173.9063,78.0139,173.9063,173.9063s-78.0139,173.9063-173.9063,173.9063-173.9062-78.0139-173.9062-173.9063,78.0139-173.9063,173.9062-173.9063m0-24.8438c-109.7665,0-198.75,88.9835-198.75,198.75s88.9835,198.75,198.75,198.75,198.75-88.9835,198.75-198.75-88.9831-198.75-198.75-198.75h0Z" style="fill:#333;"/></g></g></svg>