<svg viewBox="0 0 312 162" xmlns="http://www.w3.org/2000/svg"><path d="m0 0h312v162h-312z" fill="#333"/><path d="m79.1958 21c16.0266 0 31.0939 6.2411 42.4264 17.5736s17.5736 26.3998 17.5736 42.4264-6.2411 31.0939-17.5736 42.4264-26.3998 17.5736-42.4264 17.5736-31.0939-6.2411-42.4264-17.5736-17.5736-26.3998-17.5736-42.4264 6.2411-31.0939 17.5736-42.4264 26.3998-17.5736 42.4264-17.5736m0-4c-35.3462 0-64 28.6538-64 64s28.6538 64 64 64 64-28.6537 64-64-28.6537-64-64-64z" fill="#fff"/><path d="m79.1958 57c-13.2548 0-24 10.7451-24 24s10.7452 24 24 24 24-10.7451 24-24-10.7451-24-24-24zm0 27c-1.6567 0-3-1.3431-3-3s1.3433-3 3-3 3 1.3431 3 3-1.343 3-3 3z" fill="#cc4747"/><g fill="#fff"><path d="m79.1958 29c28.6729 0 52 23.3271 52 52s-23.3271 52-52 52-52-23.3271-52-52 23.3271-52 52-52m0-4c-30.9279 0-56 25.0721-56 56s25.0721 56 56 56 56-25.072 56-56-25.072-56-56-56z"/><path d="m79.1958 37c24.2617 0 44 19.7383 44 44s-19.7383 44-44 44-44-19.7383-44-44 19.7383-44 44-44m0-4c-26.5096 0-48 21.4904-48 48s21.4904 48 48 48 48-21.4903 48-48-21.4903-48-48-48z"/><path d="m79.1958 45c19.8505 0 36 16.1495 36 36s-16.1495 36-36 36-36-16.1495-36-36 16.1495-36 36-36m0-4c-22.0914 0-40 17.9086-40 40s17.9086 40 40 40 40-17.9086 40-40-17.9086-40-40-40z"/><path d="m79.1958 53c15.4393 0 28 12.5607 28 28s-12.5607 28-28 28-28-12.5607-28-28 12.5607-28 28-28m0-4c-17.6731 0-32 14.3269-32 32s14.3269 32 32 32 32-14.3269 32-32-14.3268-32-32-32z"/><path d="m168.2146 28.8448h6.3711c.9658 0 1.873.1074 2.7207.3213.8477.2144 1.5811.54 2.2012.9775.6196.4375 1.105.9961 1.4561 1.6748.3506.6792.5264 1.4834.5264 2.4131-.0093.5654-.1074 1.0918-.2939 1.5791-.187.4878-.4536.9185-.7998 1.292-.2461.2734-.522.5127-.8271.7178-.3057.2051-.6587.3896-1.0596.5537v.0273c.5923.1553 1.0981.3809 1.5176.6768.4189.2964.77.6313 1.0527 1.0049.2915.4014.5127.8457.6631 1.333.1504.4878.2256 1.0005.2256 1.5381.0088.9482-.1597 1.7822-.5059 2.502-.3467.7202-.8252 1.3218-1.4355 1.8047-.6108.4922-1.3379.8638-2.1807 1.1143-.8433.251-1.7568.376-2.7412.376h-6.8906v-19.9062zm6.4395 8.4082c.5376-.0088 1.0322-.082 1.4834-.2188s.8315-.3369 1.1416-.6016c.2822-.2368.5059-.5239.6699-.8613.1641-.3369.2461-.7246.2461-1.1621 0-.4648-.0752-.8682-.2256-1.21s-.3623-.6221-.6357-.8408c-.3101-.2734-.6973-.4717-1.1621-.5947s-.98-.189-1.5449-.1982h-3.1035v5.6875h3.1309zm-3.1309 8.791h3.6094c.5195 0 .9932-.0728 1.4219-.2188.4282-.1455.793-.3462 1.0938-.6016.3281-.2642.5811-.5898.7588-.9775.1777-.3872.2666-.8179.2666-1.292 0-.501-.0732-.9453-.2188-1.333-.146-.3872-.3647-.7178-.6562-.9912-.292-.2734-.6475-.4854-1.0664-.6357-.4194-.1504-.8979-.23-1.4355-.2393h-3.7734v6.2891z"/><path d="m195.7712 33.7941c.4966.0732.8862.1597 1.1689.2598l-.4648 3.2266c-.5015-.1094-.9961-.1914-1.4834-.2461-.4878-.0547-.9731-.082-1.4561-.082-.5469 0-1.0391.0547-1.4766.1641s-.8252.2783-1.1621.5059c-.3647.2188-.6748.4971-.9297.834-.2554.3374-.4697.7246-.6426 1.1621v9.1328h-3.2676v-14.793h3.0625l.1367 2.0508.0137.3418c.6016-.8291 1.3237-1.481 2.167-1.9551.8428-.4736 1.7749-.7109 2.7959-.7109.5283 0 1.041.0366 1.5381.1094z"/><path d="m208.2888 33.9581v12.0859h4.3477v2.707h-12.1953v-2.707h4.5527v-9.3652h-4.5527v-2.7207h7.8477zm-3.459-4.5596c.0908-.2231.2231-.417.3965-.5811.1641-.1548.3623-.2754.5947-.3623.2324-.0864.4941-.1299.7861-.1299.4922 0 .8906.1255 1.1963.376.3052.251.4805.5723.5264.9639.0635.4014-.0049.75-.2051 1.0459-.2007.2964-.4922.4946-.875.5947-.1914.1733-.4194.2871-.6836.3418-.2646.0547-.5562.0322-.875-.0684-.3281-.1001-.5767-.2803-.7451-.54-.1689-.2598-.2529-.5625-.2529-.9092 0-.2642.0454-.5078.1367-.7314z"/><path d="m221.0944 33.9581h5.5645v2.4473h-5.5645v7.0684c0 .5469.0659 1.0049.1982 1.374.1318.3691.3164.6587.5537.8682.2368.2188.5195.374.8477.4648.3281.0913.688.1367 1.0801.1367.2822 0 .5742-.0137.875-.041s.5923-.0635.875-.1094c.2734-.0361.5308-.0796.7725-.1299.2412-.0498.4443-.0933.6084-.1299l.3555 2.2559c-.2373.146-.522.2715-.8545.376-.333.105-.6904.1938-1.0732.2666s-.7817.1299-1.1963.1709c-.415.041-.8271.0615-1.2373.0615-.7476 0-1.4336-.1025-2.0576-.3076-.6245-.2051-1.1602-.5264-1.6064-.9639-.4468-.4282-.7954-.9795-1.0459-1.6543-.251-.6743-.376-1.4854-.376-2.4336v-7.2734h-3.582v-2.4473h3.582v-3.6094h3.2812v3.6094z"/><path d="m239.0944 33.9581v12.0859h4.3477v2.707h-12.1953v-2.707h4.5527v-9.3652h-4.5527v-2.7207h7.8477zm-3.459-4.5596c.0908-.2231.2231-.417.3965-.5811.1641-.1548.3623-.2754.5947-.3623.2324-.0864.4941-.1299.7861-.1299.4922 0 .8906.1255 1.1963.376.3052.251.4805.5723.5264.9639.0635.4014-.0049.75-.2051 1.0459-.2007.2964-.4922.4946-.875.5947-.1914.1733-.4194.2871-.6836.3418-.2646.0547-.5562.0322-.875-.0684-.3281-.1001-.5767-.2803-.7451-.54-.1689-.2598-.2529-.5625-.2529-.9092 0-.2642.0454-.5078.1367-.7314z"/><path d="m255.9528 44.0616c-.1143-.2002-.3032-.3916-.5674-.5742-.2827-.1641-.6519-.3188-1.1074-.4648-.4561-.1455-1.0254-.2822-1.709-.4102-.8569-.1729-1.6387-.3872-2.3447-.6426-.7065-.2549-1.3149-.5649-1.8252-.9297-.5015-.3462-.8936-.7563-1.1758-1.2305-.2827-.4736-.4238-1.0254-.4238-1.6543 0-.6016.1436-1.1733.4307-1.7158.2871-.542.6992-1.0186 1.2373-1.4287.5283-.4102 1.1689-.7334 1.9209-.9707.752-.2368 1.5879-.3555 2.5088-.3555.9844 0 1.8682.1211 2.6523.3623.7837.2417 1.4492.5723 1.9961.9912.5376.4194.9521.916 1.2441 1.4902.2915.5742.4375 1.1943.4375 1.8594h-3.2676c0-.2734-.0571-.5352-.1709-.7861-.1143-.2505-.2803-.4761-.499-.6768-.2554-.2368-.5835-.4258-.9844-.5674-.4014-.1411-.8706-.2119-1.4082-.2119-.4922 0-.9229.0527-1.292.1572-.3691.105-.6724.2485-.9092.4307-.2373.1641-.415.3579-.5332.5811-.1187.2236-.1777.458-.1777.7041 0 .2554.0498.4854.1504.6904.1001.2051.2778.3853.5332.54.2368.1641.5674.3145.9912.4512s.959.2598 1.6064.3691c.9023.1641 1.7271.3647 2.4746.6016.7471.2373 1.3853.5288 1.9141.875.5283.3647.9385.793 1.2305 1.2852.2915.4922.4375 1.0757.4375 1.75 0 .6562-.1528 1.2578-.458 1.8047-.3057.5469-.7363 1.0166-1.292 1.4082-.5654.3921-1.2397.6973-2.0234.916-.7842.2188-1.6543.3281-2.6113.3281-1.0664 0-2.0122-.1416-2.8369-.4238-.8252-.2822-1.5156-.6562-2.0713-1.1211-.5654-.4556-.9937-.9795-1.2852-1.5723-.292-.5923-.4375-1.1938-.4375-1.8047h3.1719c.0273.4561.1479.8408.3623 1.1553.2139.3145.4854.5674.8135.7588.3188.2007.6836.3442 1.0938.4307.4102.0869.8247.1299 1.2441.1299.5649 0 1.0596-.0591 1.4834-.1777.4238-.1182.7632-.2778 1.0186-.4785.2095-.1641.3667-.3438.4717-.54.1045-.1958.1572-.4121.1572-.6494 0-.2549-.0571-.4829-.1709-.6836z"/><path d="m267.1706 35.2569c.2368-.2461.4873-.46.752-.6426.4102-.3008.8633-.5308 1.3604-.6904.4966-.1592 1.0229-.2393 1.5791-.2393.7744 0 1.4834.1143 2.126.3418.6426.228 1.1914.5835 1.6475 1.0664.4556.4834.8086 1.1006 1.0596 1.8525.2505.752.376 1.6523.376 2.7002v9.1055h-3.2676v-9.1328c0-.5469-.0664-1.0254-.1982-1.4355-.1323-.4102-.3262-.7427-.5811-.998-.2646-.2734-.5859-.4761-.9639-.6084-.3784-.1318-.8135-.1982-1.3057-.1982-.3828 0-.7451.0459-1.0869.1367-.3418.0913-.6543.2236-.9365.3965-.2373.1367-.458.3008-.6631.4922s-.3853.4058-.54.6426v10.7051h-3.2676v-21h3.2676v8.3125c.1914-.2915.4053-.5605.6426-.8066z"/><path d="m171.5642 69.5265v7.7246h-3.2812v-19.9062h6.3164c1.0298.0093 1.9775.1416 2.8438.3965.8657.2554 1.6133.6289 2.2422 1.1211.6196.5015 1.1025 1.1235 1.4492 1.8662.3462.7432.5195 1.6113.5195 2.6045 0 .6836-.0889 1.3037-.2666 1.8594-.1777.5562-.4263 1.0576-.7451 1.5039-.3193.4468-.7021.8389-1.1484 1.1758-.4468.3374-.9434.6289-1.4902.875l4.252 8.3262v.1777h-3.5137l-3.8145-7.7246h-3.3633zm3.0762-2.6797c.583-.0088 1.1094-.0977 1.5791-.2666.4692-.1685.8682-.4121 1.1963-.7314.2915-.2734.5195-.6104.6836-1.0117.1641-.4009.2461-.8564.2461-1.3672 0-.5742-.0889-1.0776-.2666-1.5107-.1777-.4326-.4399-.7949-.7861-1.0869-.3193-.2734-.7065-.4805-1.1621-.6221-.4561-.1411-.9663-.2163-1.5312-.2256h-3.0352v6.8223h3.0762z"/><path d="m189.03 76.9777c-.9072-.3643-1.6841-.8701-2.3311-1.5176-.6475-.6377-1.1465-1.3921-1.4971-2.2627-.3511-.8701-.5264-1.8115-.5264-2.8232v-.5605c0-1.1572.1821-2.2056.5469-3.1445.3643-.9385.8657-1.7407 1.5039-2.4062.6377-.665 1.3784-1.1777 2.2217-1.5381.8428-.3599 1.7432-.54 2.7002-.54 1.0664 0 2.0098.1802 2.8301.54.8203.3604 1.5083.8594 2.0645 1.4971.5557.6475.9751 1.4175 1.2578 2.3105.2822.8936.4238 1.8687.4238 2.9258v1.4082h-10.2539v.0684c.1001.6475.2549 1.1895.4648 1.627.2095.4375.4966.8296.8613 1.1758.3643.3647.7949.6475 1.292.8477.4966.2007 1.041.3008 1.6338.3008.811 0 1.5674-.1572 2.2695-.4717.7017-.3145 1.2803-.7632 1.7363-1.3467l1.75 1.6953c-.4922.7109-1.2466 1.3491-2.2627 1.9141-1.0166.5654-2.2446.8477-3.6846.8477-1.0938 0-2.0942-.1826-3.001-.5469zm1.3125-11.8877c-.3965.1689-.75.4082-1.0596.7178-.3101.3193-.5698.7021-.7793 1.1484-.21.4468-.3647.9526-.4648 1.5176h6.959v-.2188c0-.4282-.0776-.8545-.2324-1.2783-.1553-.4238-.374-.7949-.6562-1.1143-.2734-.3096-.6177-.5581-1.0322-.7451-.415-.1865-.8955-.2803-1.4424-.2803-.4648 0-.8955.0845-1.292.2529z"/><path d="m209.5515 74.715c.3779-.123.7129-.2983 1.0049-.5264.2822-.2275.5078-.4966.6768-.8066.1685-.3096.2529-.6514.2529-1.0254h3.0762c.0088.7202-.1528 1.397-.4854 2.0303-.333.6338-.7817 1.1782-1.3467 1.6338-.5742.4741-1.2329.8457-1.9756 1.1143-.7432.2686-1.5244.4033-2.3447.4033-1.1396 0-2.1353-.1982-2.9873-.5947-.8525-.3965-1.561-.9316-2.126-1.6064-.5742-.6743-1.0073-1.4604-1.2988-2.3584-.292-.8975-.4375-1.8569-.4375-2.8779v-.4785c0-1.0117.1436-1.9688.4307-2.8711s.7178-1.6904 1.292-2.3652c.5742-.6743 1.2871-1.21 2.1396-1.6064.8521-.3965 1.8433-.5947 2.9736-.5947.8931 0 1.7202.1367 2.4814.4102.7607.2734 1.415.6562 1.9619 1.1484s.9727 1.0801 1.2783 1.7637c.3052.6836.4531 1.4355.4443 2.2559h-3.0762c0-.4009-.0752-.7793-.2256-1.1348s-.3623-.665-.6357-.9297c-.2827-.2642-.6177-.4736-1.0049-.6289-.3877-.1548-.8047-.2324-1.251-.2324-.6836 0-1.251.1392-1.7021.417-.4512.2783-.8091.6406-1.0732 1.0869-.2827.4468-.481.957-.5947 1.5312-.1143.5742-.1709 1.1577-.1709 1.75v.4785c0 .6016.0566 1.1919.1709 1.7705.1138.5791.3076 1.0869.5811 1.5244.2642.4561.624.8203 1.0801 1.0938.4556.2734 1.0254.4102 1.709.4102.4102 0 .8042-.0615 1.1826-.1846z"/><path d="m218.5954 66.7306c.3096-.916.7607-1.7109 1.3535-2.3857.583-.6743 1.2988-1.2031 2.1465-1.5859s1.8135-.5742 2.8984-.5742 2.0527.1914 2.9053.5742c.8521.3828 1.5742.9116 2.167 1.5859.583.6748 1.0298 1.4697 1.3398 2.3857.3096.916.4648 1.9121.4648 2.9873v.2871c0 1.085-.1553 2.083-.4648 2.9941-.3101.9116-.7568 1.7046-1.3398 2.3789-.5835.6748-1.3013 1.2031-2.1533 1.5859-.8525.3828-1.8164.5742-2.8916.5742-1.085 0-2.0557-.1914-2.9121-.5742-.8569-.3828-1.5771-.9111-2.1602-1.5859-.5928-.6743-1.0439-1.4673-1.3535-2.3789-.3101-.9111-.4648-1.9092-.4648-2.9941v-.2871c0-1.0752.1548-2.0713.4648-2.9873zm3.0146 5.1611c.1411.5928.3623 1.1123.6631 1.5586.2915.4468.665.7998 1.1211 1.0596.4556.2598.998.3896 1.627.3896.6104 0 1.1436-.1299 1.5996-.3896.4556-.2598.8291-.6128 1.1211-1.0596.2915-.4463.5078-.9658.6494-1.5586.1411-.5923.2119-1.2212.2119-1.8867v-.2871c0-.647-.0732-1.2666-.2188-1.8594-.146-.5923-.3604-1.1118-.6426-1.5586-.3008-.4463-.6768-.8018-1.1279-1.0664-.4512-.2642-.9912-.3965-1.6201-.3965-.6201 0-1.1553.1323-1.6064.3965-.4512.2646-.8228.6201-1.1143 1.0664-.3008.4468-.522.9663-.6631 1.5586-.1416.5928-.2119 1.2124-.2119 1.8594v.2871c0 .6655.0703 1.2944.2119 1.8867z"/><path d="m245.8996 62.2941c.4966.0732.8862.1597 1.1689.2598l-.4648 3.2266c-.5015-.1094-.9961-.1914-1.4834-.2461-.4878-.0547-.9731-.082-1.4561-.082-.5469 0-1.0391.0547-1.4766.1641s-.8252.2783-1.1621.5059c-.3647.2188-.6748.4971-.9297.834-.2554.3374-.4697.7246-.6426 1.1621v9.1328h-3.2676v-14.793h3.0625l.1367 2.0508.0137.3418c.6016-.8291 1.3237-1.481 2.167-1.9551.8428-.4736 1.7749-.7109 2.7959-.7109.5283 0 1.041.0366 1.5381.1094z"/><path d="m250.3435 66.6759c.2686-.9248.6582-1.7202 1.1689-2.3857.501-.665 1.1143-1.1826 1.8389-1.5518s1.5425-.5537 2.4541-.5537c.8203 0 1.5381.1436 2.1533.4307s1.1597.6953 1.6338 1.2236v-7.5879h3.2676v21h-2.9668l-.1504-1.5449c-.4741.5835-1.0391 1.0322-1.6953 1.3467s-1.4131.4717-2.2695.4717c-.9023 0-1.7139-.1895-2.4336-.5674-.7202-.3779-1.3311-.9043-1.832-1.5791-.5015-.665-.8887-1.4561-1.1621-2.3721s-.4102-1.9072-.4102-2.9736v-.2871c0-1.1211.1343-2.144.4033-3.0693zm3.0557 5.2158c.1274.5835.3281 1.0894.6016 1.5176.2734.4468.624.7954 1.0527 1.0459.4282.251.9434.376 1.5449.376.7383 0 1.3486-.1616 1.832-.4854.4829-.3232.8701-.7632 1.1621-1.3193v-6.3574c-.292-.5469-.6768-.9819-1.1553-1.3057-.4785-.3232-1.0825-.4854-1.8115-.4854-.6108 0-1.1328.1279-1.5654.3828-.4331.2554-.7817.6064-1.0459 1.0527-.2827.4468-.4878.9639-.6152 1.5518-.1279.5879-.1914 1.2148-.1914 1.8799v.2871c0 .6562.0635 1.2764.1914 1.8594z"/><path d="m178.3317 99.3937c-.1914-.3555-.4604-.6743-.8066-.957-.3647-.2642-.7954-.5034-1.292-.7178-.4971-.2139-1.0508-.4077-1.6611-.5811-.939-.2642-1.8027-.5898-2.5908-.9775-.7886-.3872-1.4609-.8223-2.0166-1.3057-.5562-.4922-.9912-1.0503-1.3057-1.6748-.3145-.624-.4717-1.3281-.4717-2.1123 0-.8477.1821-1.6108.5469-2.29.3643-.6787.8564-1.2598 1.4766-1.7432.6196-.4736 1.3418-.8359 2.167-1.0869.8247-.2505 1.6929-.376 2.6045-.376.9658 0 1.8662.1484 2.7002.4443.834.2964 1.5605.709 2.1807 1.2373.6196.5381 1.1094 1.1782 1.4697 1.9209.3599.7432.54 1.5654.54 2.4678h-3.2539c-.0459-.501-.1528-.959-.3213-1.374-.1689-.4146-.4033-.7725-.7041-1.0732-.3101-.2915-.686-.5215-1.1279-.6904-.4424-.1685-.9502-.2529-1.5244-.2529-.5015 0-.9639.0664-1.3877.1982-.4238.1323-.791.3169-1.1006.5537-.3101.2461-.5518.5425-.7246.8887-.1733.3467-.2598.7339-.2598 1.1621.0088.4561.1274.8545.3555 1.1963.2275.3418.5332.6406.916.8955.3916.2554.8408.4785 1.3467.6699s1.0366.3691 1.5928.5332c.7017.2007 1.3877.4492 2.0576.7451.6699.2964 1.2871.6543 1.8525 1.0732.7017.5288 1.2646 1.1602 1.6885 1.8936.4238.7339.6357 1.5791.6357 2.5361 0 .8843-.1846 1.6636-.5537 2.3379-.3691.6748-.8638 1.2354-1.4834 1.6816-.6289.4648-1.3584.8135-2.1875 1.0459-.8296.2324-1.7046.3486-2.625.3486-.9756 0-1.937-.1528-2.8848-.458-.9482-.3052-1.7729-.7495-2.4746-1.333-.6475-.5469-1.1602-1.1895-1.5381-1.9277-.3784-.7383-.5723-1.5859-.5811-2.543h3.2812c.0454.6108.1753 1.1416.3896 1.5928.2139.4512.5078.8228.8818 1.1143.3643.3008.7949.5244 1.292.6699.4966.146 1.041.2188 1.6338.2188.501 0 .9683-.0591 1.4014-.1777.4326-.1182.8086-.2959 1.1279-.5332.3096-.2275.5581-.5103.7451-.8477.1865-.3369.2803-.7246.2803-1.1621 0-.4648-.0957-.875-.2871-1.2305z"/><path d="m189.0368 92.2569c.2368-.2461.4873-.46.752-.6426.4102-.3008.8633-.5308 1.3604-.6904.4966-.1592 1.0229-.2393 1.5791-.2393.7744 0 1.4834.1143 2.126.3418.6426.228 1.1914.5835 1.6475 1.0664.4556.4834.8086 1.1006 1.0596 1.8525.2505.752.376 1.6523.376 2.7002v9.1055h-3.2676v-9.1328c0-.5469-.0664-1.0254-.1982-1.4355-.1323-.4102-.3262-.7427-.5811-.998-.2646-.2734-.5859-.4761-.9639-.6084-.3784-.1318-.8135-.1982-1.3057-.1982-.3828 0-.7451.0459-1.0869.1367-.3418.0913-.6543.2236-.9365.3965-.2373.1367-.458.3008-.6631.4922s-.3853.4058-.54.6426v10.7051h-3.2676v-21h3.2676v8.3125c.1914-.2915.4053-.5605.6426-.8066z"/><path d="m201.7927 95.2306c.3096-.916.7607-1.7109 1.3535-2.3857.583-.6743 1.2988-1.2031 2.1465-1.5859s1.8135-.5742 2.8984-.5742 2.0527.1914 2.9053.5742c.8521.3828 1.5742.9116 2.167 1.5859.583.6748 1.0298 1.4697 1.3398 2.3857.3096.916.4648 1.9121.4648 2.9873v.2871c0 1.085-.1553 2.083-.4648 2.9941-.3101.9116-.7568 1.7046-1.3398 2.3789-.5835.6748-1.3013 1.2031-2.1533 1.5859-.8525.3828-1.8164.5742-2.8916.5742-1.085 0-2.0557-.1914-2.9121-.5742-.8569-.3828-1.5771-.9111-2.1602-1.5859-.5928-.6743-1.0439-1.4673-1.3535-2.3789-.3101-.9111-.4648-1.9092-.4648-2.9941v-.2871c0-1.0752.1548-2.0713.4648-2.9873zm3.0146 5.1611c.1411.5928.3623 1.1123.6631 1.5586.2915.4468.665.7998 1.1211 1.0596.4556.2598.998.3896 1.627.3896.6104 0 1.1436-.1299 1.5996-.3896.4556-.2598.8291-.6128 1.1211-1.0596.2915-.4463.5078-.9658.6494-1.5586.1411-.5923.2119-1.2212.2119-1.8867v-.2871c0-.647-.0732-1.2666-.2188-1.8594-.146-.5923-.3604-1.1118-.6426-1.5586-.3008-.4463-.6768-.8018-1.1279-1.0664-.4512-.2642-.9912-.3965-1.6201-.3965-.6201 0-1.1553.1323-1.6064.3965-.4512.2646-.8228.6201-1.1143 1.0664-.3008.4468-.522.9663-.6631 1.5586-.1416.5928-.2119 1.2124-.2119 1.8594v.2871c0 .6655.0703 1.2944.2119 1.8867z"/><path d="m218.7595 90.9581h3.0078l.123 1.5176c.2002-.2461.4189-.4692.6562-.6699.2368-.2002.4922-.3735.7656-.5195.3555-.1914.7451-.3394 1.1689-.4443.4238-.1045.8818-.1572 1.374-.1572.9478 0 1.7842.1826 2.5088.5469.7246.3647 1.333.8799 1.8252 1.5449.4922.6655.8633 1.4609 1.1143 2.3857.2505.9253.376 1.9438.376 3.0557v.2871c0 1.0664-.1255 2.0601-.376 2.9805-.251.9209-.6221 1.7139-1.1143 2.3789-.4922.6748-1.0986 1.2031-1.8184 1.5859-.7202.3828-1.5449.5742-2.4746.5742-.5288 0-1.0142-.0547-1.4561-.1641-.4424-.1094-.8501-.2686-1.2236-.4785-.2188-.1274-.4287-.2734-.6289-.4375-.2007-.1641-.3877-.3418-.5605-.5332v7.0273h-3.2676v-20.4805zm9.4541 5.3799c-.1323-.5879-.335-1.1006-.6084-1.5381-.2827-.4375-.6426-.7837-1.0801-1.0391-.4375-.2549-.9619-.3828-1.5723-.3828-.3374 0-.6519.0366-.9434.1094-.292.0732-.5518.1777-.7793.3145-.2646.146-.4946.3281-.6904.5469-.1963.2188-.3672.4648-.5127.7383v6.5762c.1274.2554.2822.4902.4648.7041.1821.2144.3916.3945.6289.54.2461.146.5239.2622.834.3486.3096.0869.6562.1299 1.0391.1299.6016 0 1.1187-.1299 1.5518-.3896.4326-.2598.7905-.6128 1.0732-1.0596.2734-.4556.4736-.9775.6016-1.5654.1274-.5879.1914-1.21.1914-1.8662v-.2871c0-.665-.0664-1.292-.1982-1.8799z"/><path d="m171.6599 129.671-1.3535 4.5801h-3.418l6.4805-19.9062h2.9121l6.3711 19.9062h-3.4043l-1.3398-4.5801h-6.248zm5.4414-2.8164-2.2832-7.875-2.3242 7.875z"/><path d="m196.3313 119.2941c.4966.0732.8862.1597 1.1689.2598l-.4648 3.2266c-.5015-.1094-.9961-.1914-1.4834-.2461-.4878-.0547-.9731-.082-1.4561-.082-.5469 0-1.0391.0547-1.4766.1641s-.8252.2783-1.1621.5059c-.3647.2188-.6748.4971-.9297.834-.2554.3374-.4697.7246-.6426 1.1621v9.1328h-3.2676v-14.793h3.0625l.1367 2.0508.0137.3418c.6016-.8291 1.3237-1.481 2.167-1.9551.8428-.4736 1.7749-.7109 2.7959-.7109.5283 0 1.041.0366 1.5381.1094z"/><path d="m207.8713 131.715c.3779-.123.7129-.2983 1.0049-.5264.2822-.2275.5078-.4966.6768-.8066.1685-.3096.2529-.6514.2529-1.0254h3.0762c.0088.7202-.1528 1.397-.4854 2.0303-.333.6338-.7817 1.1782-1.3467 1.6338-.5742.4741-1.2329.8457-1.9756 1.1143-.7432.2686-1.5244.4033-2.3447.4033-1.1396 0-2.1353-.1982-2.9873-.5947-.8525-.3965-1.561-.9316-2.126-1.6064-.5742-.6743-1.0073-1.4604-1.2988-2.3584-.292-.8975-.4375-1.8569-.4375-2.8779v-.4785c0-1.0117.1436-1.9688.4307-2.8711s.7178-1.6904 1.292-2.3652c.5742-.6743 1.2871-1.21 2.1396-1.6064.8521-.3965 1.8433-.5947 2.9736-.5947.8931 0 1.7202.1367 2.4814.4102.7607.2734 1.415.6562 1.9619 1.1484s.9727 1.0801 1.2783 1.7637c.3052.6836.4531 1.4355.4443 2.2559h-3.0762c0-.4009-.0752-.7793-.2256-1.1348s-.3623-.665-.6357-.9297c-.2827-.2642-.6177-.4736-1.0049-.6289-.3877-.1548-.8047-.2324-1.251-.2324-.6836 0-1.251.1392-1.7021.417-.4512.2783-.8091.6406-1.0732 1.0869-.2827.4468-.481.957-.5947 1.5312-.1143.5742-.1709 1.1577-.1709 1.75v.4785c0 .6016.0566 1.1919.1709 1.7705.1138.5791.3076 1.0869.5811 1.5244.2642.4561.624.8203 1.0801 1.0938.4556.2734 1.0254.4102 1.709.4102.4102 0 .8042-.0615 1.1826-.1846z"/><path d="m220.9621 120.7569c.2368-.2461.4873-.46.752-.6426.4102-.3008.8633-.5308 1.3604-.6904.4966-.1592 1.0229-.2393 1.5791-.2393.7744 0 1.4834.1143 2.126.3418.6426.228 1.1914.5835 1.6475 1.0664.4556.4834.8086 1.1006 1.0596 1.8525.2505.752.376 1.6523.376 2.7002v9.1055h-3.2676v-9.1328c0-.5469-.0664-1.0254-.1982-1.4355-.1323-.4102-.3262-.7427-.5811-.998-.2646-.2734-.5859-.4761-.9639-.6084-.3784-.1318-.8135-.1982-1.3057-.1982-.3828 0-.7451.0459-1.0869.1367-.3418.0913-.6543.2236-.9365.3965-.2373.1367-.458.3008-.6631.4922s-.3853.4058-.54.6426v10.7051h-3.2676v-21h3.2676v8.3125c.1914-.2915.4053-.5605.6426-.8066z"/><path d="m242.1745 119.4581v12.0859h4.3477v2.707h-12.1953v-2.707h4.5527v-9.3652h-4.5527v-2.7207h7.8477zm-3.459-4.5596c.0908-.2231.2231-.417.3965-.5811.1641-.1548.3623-.2754.5947-.3623.2324-.0864.4941-.1299.7861-.1299.4922 0 .8906.1255 1.1963.376.3052.251.4805.5723.5264.9639.0635.4014-.0049.75-.2051 1.0459-.2007.2964-.4922.4946-.875.5947-.1914.1733-.4194.2871-.6836.3418-.2646.0547-.5562.0322-.875-.0684-.3281-.1001-.5767-.2803-.7451-.54-.1689-.2598-.2529-.5625-.2529-.9092 0-.2642.0454-.5078.1367-.7314z"/><path d="m247.9934 119.4581h3.3906l3.6641 10.7324.2188.9844.2188-.9844 3.623-10.7324h3.3906l-5.7969 14.793h-2.8848z"/><path d="m269.1237 133.9777c-.9072-.3643-1.6841-.8701-2.3311-1.5176-.6475-.6377-1.1465-1.3921-1.4971-2.2627-.3511-.8701-.5264-1.8115-.5264-2.8232v-.5605c0-1.1572.1821-2.2056.5469-3.1445.3643-.9385.8657-1.7407 1.5039-2.4062.6377-.665 1.3784-1.1777 2.2217-1.5381.8428-.3599 1.7432-.54 2.7002-.54 1.0664 0 2.0098.1802 2.8301.54.8203.3604 1.5083.8594 2.0645 1.4971.5557.6475.9751 1.4175 1.2578 2.3105.2822.8936.4238 1.8687.4238 2.9258v1.4082h-10.2539v.0684c.1001.6475.2549 1.1895.4648 1.627.2095.4375.4966.8296.8613 1.1758.3643.3647.7949.6475 1.292.8477.4966.2007 1.041.3008 1.6338.3008.811 0 1.5674-.1572 2.2695-.4717.7017-.3145 1.2803-.7632 1.7363-1.3467l1.75 1.6953c-.4922.7109-1.2466 1.3491-2.2627 1.9141-1.0166.5654-2.2446.8477-3.6846.8477-1.0938 0-2.0942-.1826-3.001-.5469zm1.3125-11.8877c-.3965.1689-.75.4082-1.0596.7178-.3101.3193-.5698.7021-.7793 1.1484-.21.4468-.3647.9526-.4648 1.5176h6.959v-.2188c0-.4282-.0776-.8545-.2324-1.2783-.1553-.4238-.374-.7949-.6562-1.1143-.2734-.3096-.6177-.5581-1.0322-.7451-.415-.1865-.8955-.2803-1.4424-.2803-.4648 0-.8955.0845-1.292.2529z"/></g></svg>