<svg clip-rule="evenodd" fill-rule="evenodd" stroke-linejoin="round" stroke-miterlimit="2" viewBox="0 0 795 795" xmlns="http://www.w3.org/2000/svg"><path d="m0 0h795v795h-795z" fill="#333"/><g fill-rule="nonzero" transform="matrix(.920788 0 0 .920788 31.4869 31.4869)"><path d="m397.5 248.438c-82.325 0-149.062 66.737-149.062 149.062s66.737 149.063 149.062 149.063 149.063-66.738 149.063-149.063-66.738-149.062-149.063-149.062zm0 167.695c-10.29 0-18.633-8.342-18.633-18.633 0-10.29 8.343-18.633 18.633-18.633 10.291 0 18.633 8.343 18.633 18.633 0 10.291-8.342 18.633-18.633 18.633z" fill="#cc4747"/><g fill="#fff"><path d="m397.5 74.531c178.086 0 322.969 144.883 322.969 322.969s-144.883 322.969-322.969 322.969-322.969-144.883-322.969-322.969 144.883-322.969 322.969-322.969m0-24.844c-192.091 0-347.812 155.722-347.812 347.813s155.721 347.812 347.812 347.812 347.813-155.72 347.813-347.812-155.721-347.812-347.813-347.812z"/><path d="m397.5 124.219c150.688 0 273.281 122.593 273.281 273.281s-122.593 273.281-273.281 273.281-273.281-122.593-273.281-273.281 122.593-273.281 273.281-273.281m0-24.844c-164.65 0-298.125 133.475-298.125 298.125s133.475 298.125 298.125 298.125 298.125-133.475 298.125-298.125-133.475-298.125-298.125-298.125z"/><path d="m397.5 173.906c123.29 0 223.594 100.304 223.594 223.594s-100.304 223.594-223.594 223.594-223.594-100.304-223.594-223.594 100.304-223.594 223.594-223.594m0-24.843c-137.208 0-248.437 111.229-248.437 248.437s111.229 248.438 248.437 248.438 248.438-111.23 248.438-248.438-111.229-248.437-248.438-248.437z"/><path d="m397.5 223.594c95.892 0 173.906 78.014 173.906 173.906s-78.014 173.906-173.906 173.906-173.906-78.014-173.906-173.906 78.014-173.906 173.906-173.906m0-24.844c-109.766 0-198.75 88.984-198.75 198.75 0 109.767 88.984 198.75 198.75 198.75 109.767 0 198.75-88.983 198.75-198.75 0-109.766-88.983-198.75-198.75-198.75z"/><path d="m397.5 24.844c99.54 0 193.122 38.763 263.508 109.148 70.385 70.386 109.148 163.968 109.148 263.508s-38.763 193.123-109.148 263.508c-70.386 70.385-163.968 109.148-263.508 109.148s-193.122-38.763-263.508-109.148c-70.385-70.386-109.148-163.968-109.148-263.508s38.763-193.122 109.148-263.508c70.386-70.385 163.968-109.148 263.508-109.148m0-24.844c-219.533 0-397.5 177.967-397.5 397.5s177.967 397.5 397.5 397.5 397.5-177.967 397.5-397.5-177.967-397.5-397.5-397.5z"/></g></g></svg>