<svg viewBox="0 0 795 795" xmlns="http://www.w3.org/2000/svg"><path d="m0 0h795v795h-795z" fill="#333" fill-rule="evenodd"/><path d="m397.49 30.38c-202.75 0-367.11 164.36-367.11 367.11s164.36 367.11 367.11 367.11 367.11-164.36 367.11-367.11-164.36-367.11-367.11-367.11zm0 402.31c-19.44 0-35.2-15.76-35.2-35.2s15.76-35.2 35.2-35.2 35.2 15.76 35.2 35.2-15.76 35.2-35.2 35.2z" fill="#666"/><path d="m385.71 430.74-104.15 293.86-7.69 21.74c-52.44-18.59-99.47-48.68-138-87.21s-68.62-85.56-87.21-138.03l21.71-7.69 293.86-104.12c3.56 9.97 11.48 17.92 21.48 21.45z" fill="#aaa"/><path d="m746.34 273.87-21.74 7.69-293.86 104.15c-3.53-10-11.45-17.92-21.45-21.48l104.12-293.86 7.69-21.71c51.02 18.07 96.92 47.03 134.88 84.09l6.27 6.27c37.03 37.95 65.99 83.83 84.09 134.85z" fill="#aaa"/><path d="m746.34 273.87c-18.1-51.02-47.06-96.89-84.09-134.85l-6.27-6.27c-37.95-37.06-83.86-66.02-134.88-84.09-38.65-13.7-80.27-21.16-123.6-21.16-204.37 0-370 165.63-370 370 0 43.33 7.46 84.96 21.16 123.6 18.59 52.46 48.65 99.47 87.21 138.03 38.53 38.53 85.56 68.62 138 87.21 38.65 13.7 80.27 21.16 123.63 21.16 204.34 0 370-165.66 370-370 0-43.36-7.46-84.98-21.16-123.63zm-103.57 368.9c-65.53 65.5-152.62 101.61-245.27 101.61-40.12 0-79.2-6.76-115.94-19.77-48.1-17-92.21-44.69-129.36-81.83-37.14-37.14-64.81-81.26-81.83-129.36-12.98-36.74-19.74-75.82-19.74-115.91 0-92.67 36.08-179.77 101.58-245.3 65.53-65.5 152.62-101.58 245.3-101.58 40.09 0 79.17 6.76 115.91 19.74 48.1 17.03 92.21 44.69 129.36 81.83 37.14 37.14 64.84 81.26 81.83 129.36 13.01 36.74 19.77 75.82 19.77 115.94 0 92.64-36.1 179.74-101.61 245.27z"/><path d="m397.49 96.86c165.77 0 300.62 134.86 300.62 300.62s-134.86 300.62-300.62 300.62-300.62-134.84-300.62-300.61 134.86-300.63 300.62-300.63zm0-23.12c-178.8 0-323.75 144.95-323.75 323.75s144.95 323.75 323.75 323.75 323.75-144.95 323.75-323.75-144.95-323.75-323.75-323.75z"/><path d="m397.49 143.11c140.26 0 254.38 114.11 254.38 254.38s-114.11 254.38-254.38 254.38-254.38-114.11-254.38-254.38 114.11-254.38 254.38-254.38zm0-23.12c-153.26 0-277.5 124.24-277.5 277.5s124.24 277.5 277.5 277.5 277.5-124.24 277.5-277.5-124.24-277.5-277.5-277.5z"/><path d="m397.49 189.36c114.76 0 208.12 93.36 208.12 208.12s-93.36 208.12-208.12 208.12-208.12-93.36-208.12-208.12 93.36-208.12 208.12-208.12zm0-23.12c-127.72 0-231.25 103.53-231.25 231.25s103.53 231.25 231.25 231.25 231.25-103.53 231.25-231.25-103.53-231.25-231.25-231.25z"/><path d="m397.49 235.61c89.26 0 161.88 72.62 161.88 161.88s-72.62 161.88-161.88 161.88-161.88-72.62-161.88-161.88 72.62-161.88 161.88-161.88zm0-23.12c-102.17 0-185 82.83-185 185s82.83 185 185 185 185-82.83 185-185-82.83-185-185-185z"/><path d="m397.49 235.61c-89.4 0-161.88 72.47-161.88 161.88s72.47 161.88 161.88 161.88 161.88-72.47 161.88-161.88-72.47-161.88-161.88-161.88zm0 182.11c-11.18 0-20.23-9.06-20.23-20.23s9.06-20.23 20.23-20.23 20.23 9.06 20.23 20.23-9.06 20.23-20.23 20.23z" fill="#d44207"/></svg>