<?xml version="1.0" encoding="UTF-8"?>
<svg id="mask" xmlns="http://www.w3.org/2000/svg" xmlns:xlink="http://www.w3.org/1999/xlink" viewBox="0 0 595.28 841.89">
  <defs>
    <style>
      .cls-1 {
        fill: none;
      }

      .cls-2 {
        fill: #aaa;
      }

      .cls-3 {
        fill: #666;
      }

      .cls-4 {
        fill: #d44207;
      }

      .cls-5 {
        clip-path: url(#clippath);
      }
    </style>
    <clipPath id="clippath">
      <rect id="mask-2" data-name="mask" class="cls-1" width="595.28" height="841.89"/>
    </clipPath>
  </defs>
  <g class="cls-5">
    <g id="logo_drk">
      <g id="logo">
        <path id="base" class="cls-3" d="M520.95,50.71c-122.37,0-221.57,99.2-221.57,221.57s99.2,221.57,221.57,221.57,221.57-99.2,221.57-221.57-99.2-221.57-221.57-221.57ZM520.95,293.53c-11.73,0-21.24-9.51-21.24-21.24s9.51-21.24,21.24-21.24,21.24,9.51,21.24,21.24-9.51,21.24-21.24,21.24Z"/>
        <g id="shine">
          <path class="cls-2" d="M513.84,292.35l-67.5,190.48c-31.65-11.22-60.03-29.38-83.29-52.64-23.27-23.27-41.42-51.64-52.64-83.31l190.46-67.48c2.15,6.02,6.93,10.82,12.96,12.95Z"/>
        </g>
        <g id="shine-2" data-name="shine">
          <path class="cls-2" d="M528.07,252.21l67.5-190.48c31.65,11.22,60.03,29.38,83.29,52.64,23.27,23.27,41.42,51.64,52.64,83.31l-190.46,67.48c-2.15-6.02-6.93-10.82-12.96-12.95Z"/>
        </g>
        <path id="groove5" d="M520.95,62.92c55.92,0,108.5,21.78,148.04,61.32,39.54,39.54,61.32,92.12,61.32,148.04s-21.78,108.5-61.32,148.04c-39.54,39.54-92.12,61.32-148.04,61.32s-108.5-21.78-148.04-61.32c-39.54-39.54-61.32-92.12-61.32-148.04s21.78-108.5,61.32-148.04c39.54-39.54,92.12-61.32,148.04-61.32M520.95,48.97c-123.33,0-223.32,99.98-223.32,223.32s99.98,223.32,223.32,223.32,223.32-99.98,223.32-223.32-99.98-223.32-223.32-223.32h0Z"/>
        <path id="groove4" d="M520.95,90.84c100.05,0,181.44,81.4,181.44,181.44s-81.4,181.44-181.44,181.44-181.44-81.4-181.44-181.44,81.4-181.44,181.44-181.44h0ZM520.95,76.88c-107.92,0-195.4,87.48-195.4,195.4s87.48,195.4,195.4,195.4,195.4-87.48,195.4-195.4-87.48-195.4-195.4-195.4h0Z"/>
        <path id="groove3" d="M520.95,118.75c84.66,0,153.53,68.87,153.53,153.53s-68.87,153.53-153.53,153.53-153.53-68.87-153.53-153.53,68.87-153.53,153.53-153.53h0ZM520.95,104.8c-92.5,0-167.49,74.99-167.49,167.49s74.99,167.49,167.49,167.49,167.49-74.99,167.49-167.49-74.99-167.49-167.49-167.49h0Z"/>
        <path id="groove2" d="M520.95,146.67c69.26,0,125.62,56.35,125.62,125.62s-56.35,125.62-125.62,125.62-125.62-56.35-125.62-125.62,56.35-125.62,125.62-125.62h0ZM520.95,132.71c-77.08,0-139.57,62.49-139.57,139.57s62.49,139.57,139.57,139.57,139.57-62.49,139.57-139.57-62.49-139.57-139.57-139.57h0Z"/>
        <path id="groove1" d="M520.95,174.58c53.87,0,97.7,43.83,97.7,97.7s-43.83,97.7-97.7,97.7-97.7-43.83-97.7-97.7,43.83-97.7,97.7-97.7h0ZM520.95,160.63c-61.67,0-111.66,49.99-111.66,111.66s49.99,111.66,111.66,111.66,111.66-49.99,111.66-111.66-49.99-111.66-111.66-111.66h0Z"/>
        <path id="center-label" class="cls-4" d="M520.95,174.58c-53.96,0-97.7,43.74-97.7,97.7s43.74,97.7,97.7,97.7,97.7-43.74,97.7-97.7-43.74-97.7-97.7-97.7ZM520.95,284.5c-6.74,0-12.21-5.47-12.21-12.21s5.47-12.21,12.21-12.21,12.21,5.47,12.21,12.21-5.47,12.21-12.21,12.21Z"/>
      </g>
    </g>
  </g>
</svg>