<svg viewBox="0 0 595.28 841.89" xmlns="http://www.w3.org/2000/svg" xmlns:xlink="http://www.w3.org/1999/xlink"><clipPath id="a"><path d="m0 0h595.28v841.89h-595.28z"/></clipPath><g clip-path="url(#a)"><path d="m520.95 50.71c-122.37 0-221.57 99.2-221.57 221.57s99.2 221.57 221.57 221.57 221.57-99.2 221.57-221.57-99.2-221.57-221.57-221.57zm0 242.82c-11.73 0-21.24-9.51-21.24-21.24s9.51-21.24 21.24-21.24 21.24 9.51 21.24 21.24-9.51 21.24-21.24 21.24z" fill="#666"/><path d="m513.84 292.35-67.5 190.48c-31.65-11.22-60.03-29.38-83.29-52.64-23.27-23.27-41.42-51.64-52.64-83.31l190.46-67.48c2.15 6.02 6.93 10.82 12.96 12.95z" fill="#aaa"/><path d="m528.07 252.21 67.5-190.48c31.65 11.22 60.03 29.38 83.29 52.64 23.27 23.27 41.42 51.64 52.64 83.31l-190.46 67.48c-2.15-6.02-6.93-10.82-12.96-12.95z" fill="#aaa"/><path d="m520.95 62.92c55.92 0 108.5 21.78 148.04 61.32s61.32 92.12 61.32 148.04-21.78 108.5-61.32 148.04-92.12 61.32-148.04 61.32-108.5-21.78-148.04-61.32-61.32-92.12-61.32-148.04 21.78-108.5 61.32-148.04 92.12-61.32 148.04-61.32m0-13.95c-123.33 0-223.32 99.98-223.32 223.32s99.98 223.32 223.32 223.32 223.32-99.98 223.32-223.32-99.98-223.32-223.32-223.32z"/><path d="m520.95 90.84c100.05 0 181.44 81.4 181.44 181.44s-81.4 181.44-181.44 181.44-181.44-81.4-181.44-181.44 81.4-181.44 181.44-181.44zm0-13.96c-107.92 0-195.4 87.48-195.4 195.4s87.48 195.4 195.4 195.4 195.4-87.48 195.4-195.4-87.48-195.4-195.4-195.4z"/><path d="m520.95 118.75c84.66 0 153.53 68.87 153.53 153.53s-68.87 153.53-153.53 153.53-153.53-68.87-153.53-153.53 68.87-153.53 153.53-153.53zm0-13.95c-92.5 0-167.49 74.99-167.49 167.49s74.99 167.49 167.49 167.49 167.49-74.99 167.49-167.49-74.99-167.49-167.49-167.49z"/><path d="m520.95 146.67c69.26 0 125.62 56.35 125.62 125.62s-56.35 125.62-125.62 125.62-125.62-56.35-125.62-125.62 56.35-125.62 125.62-125.62zm0-13.96c-77.08 0-139.57 62.49-139.57 139.57s62.49 139.57 139.57 139.57 139.57-62.49 139.57-139.57-62.49-139.57-139.57-139.57z"/><path d="m520.95 174.58c53.87 0 97.7 43.83 97.7 97.7s-43.83 97.7-97.7 97.7-97.7-43.83-97.7-97.7 43.83-97.7 97.7-97.7zm0-13.95c-61.67 0-111.66 49.99-111.66 111.66s49.99 111.66 111.66 111.66 111.66-49.99 111.66-111.66-49.99-111.66-111.66-111.66z"/><path d="m520.95 174.58c-53.96 0-97.7 43.74-97.7 97.7s43.74 97.7 97.7 97.7 97.7-43.74 97.7-97.7-43.74-97.7-97.7-97.7zm0 109.92c-6.74 0-12.21-5.47-12.21-12.21s5.47-12.21 12.21-12.21 12.21 5.47 12.21 12.21-5.47 12.21-12.21 12.21z" fill="#d44207"/></g></svg>