<?xml version="1.0" encoding="UTF-8" standalone="no"?>
<!DOCTYPE svg PUBLIC "-//W3C//DTD SVG 1.1//EN" "http://www.w3.org/Graphics/SVG/1.1/DTD/svg11.dtd">
<svg width="100%" height="100%" viewBox="0 0 1200 1200" version="1.1" xmlns="http://www.w3.org/2000/svg" xmlns:xlink="http://www.w3.org/1999/xlink" xml:space="preserve" xmlns:serif="http://www.serif.com/" style="fill-rule:evenodd;clip-rule:evenodd;stroke-linejoin:round;stroke-miterlimit:2;">
    <g transform="matrix(1.13252,0,0,1.13252,600,-149.859)">
        <g id="Layer_1-2">
            <g>
                <path d="M397.5,24.844C497.04,24.844 590.622,63.607 661.008,133.992C731.393,204.378 770.156,297.96 770.156,397.5C770.156,497.04 731.393,590.623 661.008,661.008C590.622,731.393 497.04,770.156 397.5,770.156C297.96,770.156 204.378,731.393 133.992,661.008C63.607,590.622 24.844,497.04 24.844,397.5C24.844,297.96 63.607,204.378 133.992,133.992C204.378,63.607 297.96,24.844 397.5,24.844M397.5,0C177.967,0 0,177.967 0,397.5C0,617.033 177.967,795 397.5,795C617.033,795 795,617.033 795,397.5C795,177.967 617.033,0 397.5,0Z" style="fill:rgb(51,51,51);fill-rule:nonzero;"/>
                <path d="M397.5,248.438C315.175,248.438 248.438,315.175 248.438,397.5C248.438,479.825 315.175,546.563 397.5,546.563C479.825,546.563 546.563,479.825 546.563,397.5C546.563,315.175 479.825,248.438 397.5,248.438ZM397.5,416.133C387.21,416.133 378.867,407.791 378.867,397.5C378.867,387.21 387.21,378.867 397.5,378.867C407.791,378.867 416.133,387.21 416.133,397.5C416.133,407.791 407.791,416.133 397.5,416.133Z" style="fill:rgb(204,71,71);fill-rule:nonzero;"/>
                <path d="M397.5,74.531C575.586,74.531 720.469,219.414 720.469,397.5C720.469,575.586 575.586,720.469 397.5,720.469C219.414,720.469 74.531,575.586 74.531,397.5C74.531,219.414 219.414,74.531 397.5,74.531M397.5,49.687C205.409,49.687 49.688,205.409 49.688,397.5C49.688,589.591 205.409,745.312 397.5,745.312C589.591,745.312 745.313,589.592 745.313,397.5C745.313,205.408 589.592,49.688 397.5,49.688L397.5,49.687Z" style="fill:rgb(51,51,51);fill-rule:nonzero;"/>
                <path d="M397.5,124.219C548.188,124.219 670.781,246.812 670.781,397.5C670.781,548.188 548.188,670.781 397.5,670.781C246.812,670.781 124.219,548.188 124.219,397.5C124.219,246.812 246.812,124.219 397.5,124.219M397.5,99.375C232.85,99.375 99.375,232.85 99.375,397.5C99.375,562.15 232.85,695.625 397.5,695.625C562.15,695.625 695.625,562.15 695.625,397.5C695.625,232.85 562.15,99.375 397.5,99.375Z" style="fill:rgb(51,51,51);fill-rule:nonzero;"/>
                <path d="M397.5,173.906C520.79,173.906 621.094,274.21 621.094,397.5C621.094,520.79 520.79,621.094 397.5,621.094C274.21,621.094 173.906,520.79 173.906,397.5C173.906,274.21 274.21,173.906 397.5,173.906M397.5,149.063C260.292,149.063 149.063,260.292 149.063,397.5C149.063,534.708 260.292,645.938 397.5,645.938C534.708,645.938 645.938,534.708 645.938,397.5C645.938,260.292 534.709,149.063 397.5,149.063Z" style="fill:rgb(51,51,51);fill-rule:nonzero;"/>
                <path d="M397.5,223.594C493.392,223.594 571.406,301.608 571.406,397.5C571.406,493.392 493.392,571.406 397.5,571.406C301.608,571.406 223.594,493.392 223.594,397.5C223.594,301.608 301.608,223.594 397.5,223.594M397.5,198.75C287.734,198.75 198.75,287.734 198.75,397.5C198.75,507.267 287.734,596.25 397.5,596.25C507.267,596.25 596.25,507.267 596.25,397.5C596.25,287.734 507.267,198.75 397.5,198.75Z" style="fill:rgb(51,51,51);fill-rule:nonzero;"/>
            </g>
        </g>
    </g>
</svg>
