<svg width="624" height="324" viewBox="0 0 624 324" fill="none" xmlns="http://www.w3.org/2000/svg">
<rect width="624" height="324" fill="#333333"/>
<path d="M158.392 42C190.445 42 220.58 54.4821 243.244 77.1471C265.909 99.8121 278.392 129.947 278.392 162C278.392 194.053 265.909 224.188 243.244 246.853C220.58 269.518 190.445 282 158.392 282C126.338 282 96.2039 269.518 73.5388 246.853C50.8738 224.188 38.3916 194.053 38.3916 162C38.3916 129.947 50.8738 99.8122 73.5388 77.1471C96.2038 54.482 126.339 42 158.392 42ZM158.392 34C87.6992 34 30.3916 91.3076 30.3916 162C30.3916 232.692 87.6992 290 158.392 290C229.084 290 286.392 232.693 286.392 162C286.392 91.3075 229.084 34 158.392 34Z" fill="white"/>
<path d="M158.392 114C131.882 114 110.392 135.49 110.392 162C110.392 188.51 131.882 210 158.392 210C184.901 210 206.392 188.51 206.392 162C206.392 135.49 184.901 114 158.392 114ZM158.392 168C155.078 168 152.392 165.314 152.392 162C152.392 158.686 155.078 156 158.392 156C161.705 156 164.392 158.686 164.392 162C164.392 165.314 161.705 168 158.392 168Z" fill="#CC4747"/>
<path d="M158.392 58C215.737 58 262.392 104.654 262.392 162C262.392 219.346 215.737 266 158.392 266C101.046 266 54.3916 219.346 54.3916 162C54.3916 104.654 101.046 58 158.392 58ZM158.392 50C96.5358 50 46.3916 100.144 46.3916 162C46.3916 223.856 96.5358 274 158.392 274C220.247 274 270.392 223.856 270.392 162C270.392 100.144 220.248 50 158.392 50Z" fill="white"/>
<path d="M158.392 74C206.915 74 246.392 113.477 246.392 162C246.392 210.523 206.915 250 158.392 250C109.868 250 70.3916 210.523 70.3916 162C70.3916 113.477 109.868 74 158.392 74ZM158.392 66C105.372 66 62.3916 108.981 62.3916 162C62.3916 215.019 105.372 258 158.392 258C211.411 258 254.392 215.019 254.392 162C254.392 108.981 211.411 66 158.392 66Z" fill="white"/>
<path d="M158.392 90C198.093 90 230.392 122.299 230.392 162C230.392 201.701 198.093 234 158.392 234C118.691 234 86.3916 201.701 86.3916 162C86.3916 122.299 118.691 90 158.392 90ZM158.392 82C114.209 82 78.3916 117.817 78.3916 162C78.3916 206.183 114.209 242 158.392 242C202.574 242 238.392 206.183 238.392 162C238.392 117.817 202.575 82 158.392 82Z" fill="white"/>
<path d="M158.392 106C189.27 106 214.392 131.121 214.392 162C214.392 192.879 189.27 218 158.392 218C127.513 218 102.392 192.879 102.392 162C102.392 131.121 127.513 106 158.392 106ZM158.392 98C123.045 98 94.3916 126.654 94.3916 162C94.3916 197.346 123.045 226 158.392 226C193.738 226 222.392 197.346 222.392 162C222.392 126.654 193.738 98 158.392 98Z" fill="white"/>
<path d="M336.429 57.6897H349.171C351.103 57.6897 352.917 57.9045 354.613 58.3323C356.308 58.761 357.775 59.4124 359.015 60.2874C360.254 61.1624 361.225 62.2796 361.927 63.637C362.628 64.9954 362.98 66.6037 362.98 68.4631C362.961 69.594 362.765 70.6467 362.392 71.6213C362.018 72.5969 361.485 73.4582 360.792 74.2053C360.3 74.7522 359.748 75.2308 359.138 75.6409C358.527 76.0511 357.821 76.4202 357.019 76.7483V76.803C358.203 77.1135 359.215 77.5647 360.054 78.1565C360.892 78.7493 361.594 79.4192 362.16 80.1663C362.743 80.969 363.185 81.8577 363.486 82.8323C363.787 83.8079 363.937 84.8332 363.937 85.9084C363.955 87.8049 363.618 89.473 362.925 90.9124C362.232 92.3528 361.275 93.5559 360.054 94.5217C358.832 95.5061 357.378 96.2492 355.693 96.7502C354.006 97.2522 352.179 97.5022 350.21 97.5022H336.429L336.429 57.6897ZM349.308 74.5061C350.383 74.4885 351.372 74.342 352.275 74.0686C353.177 73.7952 353.938 73.3948 354.558 72.8655C355.122 72.3919 355.57 71.8175 355.898 71.1427C356.226 70.4689 356.39 69.6936 356.39 68.8186C356.39 67.8889 356.24 67.0823 355.939 66.3987C355.638 65.7151 355.214 65.1545 354.667 64.717C354.047 64.1701 353.273 63.7737 352.343 63.5276C351.413 63.2815 350.383 63.1497 349.253 63.1311H343.046V74.5061H349.308ZM343.046 92.088H350.265C351.304 92.088 352.251 91.9425 353.109 91.6505C353.965 91.3595 354.695 90.9581 355.296 90.4474C355.953 89.9191 356.458 89.2677 356.814 88.4923C357.169 87.7179 357.347 86.8566 357.347 85.9083C357.347 84.9063 357.201 84.0177 356.91 83.2423C356.618 82.4679 356.18 81.8068 355.597 81.2599C355.013 80.713 354.302 80.2892 353.464 79.9884C352.625 79.6876 351.668 79.5284 350.593 79.5099H343.046L343.046 92.088Z" fill="white"/>
<path d="M391.542 67.588C392.535 67.7345 393.315 67.9073 393.88 68.1075L392.951 74.5607C391.948 74.3419 390.958 74.1779 389.984 74.0685C389.008 73.9591 388.037 73.9043 387.072 73.9043C385.978 73.9043 384.994 74.0137 384.119 74.2324C383.244 74.4511 382.468 74.789 381.794 75.2441C381.065 75.6816 380.445 76.2382 379.935 76.9121C379.424 77.5869 378.995 78.3613 378.65 79.2363V97.502H372.115V67.916H378.24L378.513 72.0176L378.54 72.7012C379.743 71.043 381.188 69.7393 382.874 68.791C384.56 67.8437 386.424 67.3691 388.466 67.3691C389.523 67.3691 390.548 67.4424 391.542 67.588Z" fill="white"/>
<path d="M416.577 67.9163V92.0881H425.273V97.5022H400.882V92.0881H409.988V73.3577H400.882V67.9163H416.577ZM409.659 58.7971C409.841 58.3508 410.106 57.9631 410.452 57.635C410.781 57.3254 411.177 57.0842 411.642 56.9104C412.107 56.7375 412.63 56.6506 413.214 56.6506C414.199 56.6506 414.995 56.9016 415.607 57.4026C416.217 57.9046 416.568 58.5471 416.66 59.3303C416.787 60.133 416.65 60.8303 416.249 61.4221C415.848 62.0149 415.265 62.4115 414.499 62.6117C414.117 62.9584 413.661 63.1859 413.132 63.2953C412.603 63.4047 412.02 63.3598 411.382 63.1586C410.726 62.9584 410.229 62.5981 409.892 62.0785C409.554 61.559 409.386 60.9534 409.386 60.26C409.386 59.7317 409.477 59.2444 409.659 58.7971Z" fill="white"/>
<path d="M442.189 67.9163H453.318V72.8108H442.189V86.9474C442.189 88.0412 442.321 88.9572 442.585 89.6954C442.849 90.4337 443.218 91.0129 443.693 91.4318C444.166 91.8693 444.732 92.1798 445.388 92.3615C446.044 92.5441 446.764 92.6349 447.548 92.6349C448.113 92.6349 448.697 92.6076 449.298 92.5529C449.9 92.4982 450.483 92.4259 451.048 92.3341C451.595 92.2618 452.11 92.1748 452.593 92.0742C453.076 91.9746 453.482 91.8878 453.81 91.8145L454.521 96.3262C454.046 96.6182 453.477 96.8691 452.812 97.0781C452.146 97.2881 451.431 97.4658 450.665 97.6113C449.9 97.7568 449.102 97.8711 448.273 97.9531C447.443 98.0351 446.618 98.0762 445.798 98.0762C444.303 98.0762 442.931 97.871 441.683 97.4609C440.434 97.0507 439.363 96.4082 438.47 95.5332C437.576 94.6768 436.879 93.5742 436.378 92.2246C435.876 90.876 435.626 89.2539 435.626 87.3574V72.8105H428.462V67.916H435.626V60.6973H442.189L442.189 67.9163Z" fill="white"/>
<path d="M478.189 67.9163V92.0881H486.884V97.5022H462.494V92.0881H471.599V73.3577H462.494V67.9163H478.189ZM471.271 58.7971C471.453 58.3508 471.717 57.9631 472.064 57.635C472.392 57.3254 472.789 57.0842 473.253 56.9104C473.718 56.7375 474.242 56.6506 474.826 56.6506C475.81 56.6506 476.607 56.9016 477.218 57.4026C477.829 57.9046 478.179 58.5471 478.271 59.3303C478.398 60.133 478.261 60.8303 477.861 61.4221C477.459 62.0149 476.876 62.4115 476.111 62.6117C475.728 62.9584 475.272 63.1859 474.744 63.2953C474.214 63.4047 473.631 63.3598 472.994 63.1586C472.337 62.9584 471.84 62.5981 471.503 62.0785C471.166 61.559 470.998 60.9534 470.998 60.26C470.998 59.7317 471.088 59.2444 471.271 58.7971Z" fill="white"/>
<path d="M511.906 88.1234C511.677 87.723 511.299 87.3402 510.771 86.975C510.205 86.6469 509.467 86.3373 508.556 86.0453C507.644 85.7543 506.505 85.4808 505.138 85.225C503.424 84.8793 501.861 84.4506 500.449 83.9398C499.035 83.43 497.819 82.8098 496.798 82.0803C495.795 81.3879 495.011 80.5677 494.447 79.6195C493.881 78.6722 493.599 77.5687 493.599 76.3109C493.599 75.1078 493.886 73.9642 494.46 72.8793C495.034 71.7953 495.859 70.8422 496.935 70.0219C497.991 69.2016 499.273 68.555 500.777 68.0804C502.28 67.6068 503.952 67.3696 505.794 67.3696C507.763 67.3696 509.53 67.6117 511.099 68.0941C512.666 68.5775 513.997 69.2386 515.091 70.0765C516.166 70.9154 516.995 71.9086 517.579 73.0571C518.162 74.2055 518.454 75.4458 518.454 76.7759H511.919C511.919 76.229 511.805 75.7056 511.577 75.2036C511.349 74.7026 511.017 74.2515 510.579 73.8501C510.069 73.3765 509.412 72.9984 508.611 72.7152C507.808 72.433 506.869 72.2915 505.794 72.2915C504.81 72.2915 503.948 72.397 503.21 72.606C502.472 72.816 501.865 73.1031 501.392 73.4673C500.917 73.7954 500.562 74.1831 500.325 74.6294C500.088 75.0767 499.97 75.5454 499.97 76.0376C499.97 76.5483 500.069 77.0083 500.271 77.4185C500.471 77.8287 500.826 78.1889 501.337 78.4985C501.811 78.8266 502.472 79.1275 503.319 79.4009C504.167 79.6743 505.237 79.9204 506.532 80.1392C508.337 80.4673 509.986 80.8687 511.482 81.3423C512.976 81.8169 514.252 82.3999 515.31 83.0923C516.366 83.8218 517.187 84.6782 517.771 85.6626C518.354 86.647 518.646 87.814 518.646 89.1626C518.646 90.4751 518.34 91.6782 517.73 92.772C517.118 93.8658 516.257 94.8052 515.146 95.5884C514.015 96.3726 512.666 96.9829 511.099 97.4204C509.53 97.8579 507.79 98.0765 505.876 98.0765C503.743 98.0765 501.852 97.7934 500.202 97.2289C498.552 96.6644 497.171 95.9164 496.06 94.9867C494.929 94.0756 494.072 93.0277 493.489 91.8422C492.905 90.6576 492.614 89.4545 492.614 88.2328H498.958C499.013 89.1449 499.254 89.9143 499.683 90.5432C500.11 91.1721 500.653 91.6781 501.31 92.0609C501.947 92.4623 502.677 92.7493 503.497 92.9221C504.317 93.0959 505.147 93.182 505.985 93.182C507.115 93.182 508.105 93.0637 508.952 92.8264C509.8 92.5901 510.479 92.2708 510.989 91.8695C511.408 91.5414 511.723 91.182 511.933 90.7894C512.142 90.3978 512.247 89.9652 512.247 89.4906C512.247 88.9808 512.133 88.5248 511.906 88.1234Z" fill="white"/>
<path d="M534.341 70.5139C534.815 70.0217 535.316 69.5941 535.845 69.2288C536.665 68.6272 537.572 68.1673 538.566 67.8479C539.559 67.5295 540.612 67.3694 541.724 67.3694C543.273 67.3694 544.691 67.5979 545.976 68.053C547.261 68.5091 548.359 69.22 549.271 70.1858C550.182 71.1526 550.888 72.387 551.39 73.8909C551.891 75.3948 552.142 77.1956 552.142 79.2913V97.5022H545.607V79.2366C545.607 78.1428 545.474 77.1858 545.21 76.3655C544.946 75.5452 544.558 74.8801 544.048 74.3694C543.519 73.8225 542.876 73.4173 542.12 73.1526C541.364 72.8889 540.493 72.7561 539.509 72.7561C538.744 72.7561 538.019 72.8478 537.335 73.0294C536.652 73.212 536.027 73.4767 535.462 73.8224C534.988 74.0958 534.546 74.4241 534.136 74.8069C533.726 75.1897 533.366 75.6183 533.056 76.092V97.5022H526.521V55.5022H533.056V72.1272C533.439 71.5442 533.866 71.0061 534.341 70.5139Z" fill="white"/>
<path d="M343.128 139.053V154.502H336.566V114.69H349.199C351.258 114.708 353.154 114.973 354.886 115.483C356.617 115.993 358.113 116.74 359.37 117.725C360.61 118.728 361.576 119.972 362.269 121.457C362.961 122.944 363.308 124.68 363.308 126.666C363.308 128.033 363.13 129.274 362.775 130.385C362.419 131.497 361.922 132.5 361.285 133.393C360.646 134.286 359.88 135.071 358.988 135.745C358.094 136.419 357.101 137.002 356.007 137.495L364.511 154.147V154.502H357.484L349.855 139.053L343.128 139.053ZM349.281 133.694C350.447 133.676 351.499 133.498 352.439 133.16C353.377 132.823 354.175 132.336 354.831 131.697C355.414 131.15 355.87 130.477 356.199 129.674C356.527 128.872 356.691 127.961 356.691 126.94C356.691 125.791 356.513 124.784 356.158 123.918C355.802 123.053 355.278 122.328 354.585 121.744C353.947 121.197 353.172 120.783 352.261 120.5C351.349 120.218 350.328 120.068 349.199 120.049H343.128V133.694H349.281Z" fill="white"/>
<path d="M378.06 153.955C376.245 153.227 374.692 152.215 373.398 150.92C372.103 149.645 371.105 148.136 370.404 146.395C369.702 144.654 369.351 142.772 369.351 140.748V139.627C369.351 137.313 369.715 135.216 370.445 133.338C371.173 131.461 372.176 129.856 373.453 128.525C374.728 127.195 376.209 126.17 377.896 125.449C379.581 124.73 381.382 124.369 383.296 124.369C385.429 124.369 387.316 124.73 388.957 125.449C390.597 126.17 391.973 127.168 393.085 128.443C394.197 129.738 395.036 131.278 395.601 133.064C396.166 134.852 396.449 136.802 396.449 138.916V141.732H375.941V141.869C376.141 143.164 376.451 144.248 376.871 145.123C377.29 145.998 377.864 146.782 378.593 147.475C379.322 148.204 380.183 148.77 381.177 149.17C382.171 149.571 383.259 149.771 384.445 149.771C386.067 149.771 387.58 149.457 388.984 148.828C390.387 148.199 391.545 147.302 392.457 146.135L395.957 149.525C394.972 150.947 393.464 152.223 391.431 153.353C389.398 154.484 386.942 155.049 384.062 155.049C381.875 155.049 379.873 154.684 378.06 153.955ZM380.685 130.18C379.892 130.518 379.185 130.996 378.566 131.615C377.946 132.254 377.426 133.02 377.007 133.912C376.587 134.806 376.278 135.817 376.077 136.947H389.995V136.51C389.995 135.653 389.84 134.801 389.531 133.953C389.22 133.106 388.783 132.364 388.218 131.725C387.671 131.106 386.983 130.609 386.154 130.235C385.324 129.862 384.363 129.674 383.269 129.674C382.339 129.674 381.478 129.843 380.685 130.18Z" fill="white"/>
<path d="M419.103 149.43C419.859 149.184 420.529 148.833 421.113 148.377C421.677 147.922 422.128 147.384 422.466 146.764C422.803 146.145 422.972 145.461 422.972 144.713H429.124C429.142 146.154 428.819 147.507 428.154 148.774C427.488 150.041 426.59 151.13 425.46 152.041C424.312 152.989 422.995 153.733 421.509 154.27C420.023 154.807 418.46 155.076 416.82 155.076C414.54 155.076 412.549 154.68 410.845 153.887C409.14 153.094 407.723 152.024 406.593 150.674C405.445 149.325 404.578 147.753 403.995 145.957C403.411 144.162 403.12 142.243 403.12 140.201V139.244C403.12 137.221 403.407 135.307 403.982 133.502C404.556 131.697 405.417 130.121 406.566 128.772C407.714 127.423 409.14 126.352 410.845 125.559C412.549 124.766 414.531 124.369 416.792 124.369C418.578 124.369 420.233 124.643 421.755 125.189C423.277 125.736 424.585 126.502 425.679 127.486C426.773 128.471 427.624 129.647 428.236 131.014C428.846 132.381 429.142 133.885 429.124 135.525H422.972C422.972 134.724 422.822 133.967 422.521 133.256C422.22 132.545 421.796 131.926 421.249 131.396C420.684 130.868 420.014 130.449 419.239 130.139C418.464 129.829 417.63 129.674 416.737 129.674C415.37 129.674 414.235 129.952 413.333 130.508C412.431 131.064 411.715 131.789 411.187 132.682C410.621 133.575 410.225 134.596 409.997 135.744C409.769 136.893 409.655 138.06 409.655 139.244V140.201C409.655 141.404 409.769 142.585 409.997 143.742C410.225 144.9 410.612 145.916 411.159 146.791C411.688 147.703 412.407 148.431 413.319 148.978C414.231 149.525 415.37 149.799 416.737 149.799C417.558 149.799 418.346 149.676 419.103 149.43Z" fill="white"/>
<path d="M437.191 133.461C437.81 131.629 438.712 130.039 439.898 128.69C441.064 127.341 442.496 126.283 444.191 125.518C445.886 124.752 447.818 124.369 449.988 124.369C452.158 124.369 454.093 124.752 455.798 125.518C457.502 126.283 458.947 127.341 460.132 128.69C461.298 130.039 462.192 131.629 462.812 133.461C463.431 135.293 463.742 137.285 463.742 139.436V140.01C463.742 142.18 463.431 144.176 462.812 145.998C462.192 147.821 461.298 149.408 460.132 150.756C458.965 152.106 457.53 153.162 455.826 153.928C454.121 154.694 452.193 155.076 450.042 155.076C447.873 155.076 445.931 154.694 444.218 153.928C442.504 153.162 441.064 152.106 439.898 150.756C438.712 149.408 437.81 147.821 437.191 145.998C436.571 144.176 436.261 142.18 436.261 140.01V139.436C436.261 137.285 436.571 135.293 437.191 133.461ZM443.22 143.783C443.502 144.969 443.945 146.008 444.546 146.901C445.129 147.794 445.876 148.5 446.789 149.02C447.7 149.539 448.785 149.799 450.042 149.799C451.263 149.799 452.33 149.539 453.242 149.02C454.153 148.5 454.9 147.794 455.484 146.901C456.067 146.008 456.499 144.969 456.783 143.783C457.065 142.599 457.206 141.341 457.206 140.01V139.436C457.206 138.142 457.06 136.903 456.769 135.717C456.477 134.532 456.048 133.493 455.484 132.6C454.882 131.707 454.13 130.996 453.228 130.467C452.326 129.939 451.245 129.674 449.988 129.674C448.747 129.674 447.677 129.939 446.775 130.467C445.872 130.996 445.129 131.707 444.546 132.6C443.945 133.493 443.502 134.532 443.22 135.717C442.937 136.903 442.796 138.142 442.796 139.436V140.01C442.796 141.341 442.937 142.599 443.22 143.783Z" fill="white"/>
<path d="M491.799 124.588C492.792 124.735 493.572 124.907 494.137 125.108L493.207 131.561C492.204 131.342 491.215 131.178 490.241 131.068C489.265 130.959 488.294 130.904 487.328 130.904C486.235 130.904 485.25 131.014 484.375 131.232C483.5 131.451 482.725 131.789 482.051 132.244C481.322 132.682 480.702 133.238 480.192 133.912C479.681 134.587 479.252 135.361 478.906 136.236V154.502H472.371V124.916H478.496L478.77 129.018L478.797 129.701C480 128.043 481.445 126.739 483.131 125.791C484.817 124.844 486.681 124.369 488.723 124.369C489.779 124.369 490.805 124.442 491.799 124.588Z" fill="white"/>
<path d="M500.687 133.352C501.224 131.502 502.003 129.911 503.025 128.58C504.027 127.25 505.253 126.215 506.702 125.477C508.152 124.739 509.787 124.37 511.611 124.37C513.251 124.37 514.687 124.657 515.917 125.231C517.148 125.805 518.237 126.621 519.185 127.678V112.502H525.72V154.502H519.786L519.486 151.412C518.537 152.579 517.408 153.477 516.095 154.106C514.783 154.735 513.269 155.049 511.556 155.049C509.751 155.049 508.128 154.67 506.689 153.914C505.248 153.159 504.027 152.106 503.025 150.756C502.022 149.426 501.247 147.844 500.7 146.012C500.154 144.18 499.88 142.198 499.88 140.065V139.491C499.88 137.248 500.149 135.202 500.687 133.352ZM506.798 143.783C507.053 144.95 507.454 145.962 508.001 146.819C508.548 147.712 509.249 148.409 510.107 148.91C510.963 149.412 511.993 149.662 513.197 149.662C514.673 149.662 515.894 149.339 516.861 148.692C517.826 148.045 518.601 147.165 519.185 146.053V133.338C518.601 132.244 517.831 131.374 516.874 130.727C515.917 130.08 514.709 129.756 513.251 129.756C512.03 129.756 510.986 130.012 510.12 130.522C509.254 131.033 508.557 131.735 508.029 132.627C507.463 133.521 507.053 134.555 506.798 135.731C506.542 136.907 506.415 138.16 506.415 139.491V140.065C506.415 141.377 506.542 142.617 506.798 143.783Z" fill="white"/>
<path d="M356.663 198.787C356.281 198.076 355.743 197.439 355.05 196.873C354.321 196.345 353.459 195.866 352.466 195.438C351.472 195.01 350.365 194.622 349.144 194.276C347.266 193.747 345.538 193.096 343.962 192.321C342.385 191.546 341.04 190.676 339.929 189.709C338.817 188.725 337.947 187.609 337.318 186.36C336.689 185.112 336.374 183.703 336.374 182.135C336.374 180.44 336.739 178.913 337.468 177.555C338.197 176.198 339.181 175.035 340.421 174.069C341.661 173.121 343.105 172.397 344.755 171.895C346.405 171.394 348.141 171.143 349.964 171.143C351.896 171.143 353.697 171.44 355.365 172.031C357.033 172.624 358.486 173.45 359.726 174.506C360.965 175.582 361.945 176.863 362.665 178.348C363.385 179.834 363.746 181.479 363.746 183.283H357.238C357.146 182.281 356.932 181.365 356.595 180.535C356.257 179.706 355.789 178.991 355.187 178.389C354.567 177.806 353.815 177.346 352.931 177.008C352.046 176.671 351.031 176.502 349.882 176.502C348.879 176.502 347.955 176.635 347.107 176.899C346.259 177.163 345.525 177.533 344.906 178.006C344.286 178.498 343.802 179.091 343.456 179.783C343.11 180.477 342.937 181.251 342.937 182.108C342.955 183.02 343.192 183.817 343.648 184.5C344.103 185.184 344.714 185.781 345.48 186.291C346.263 186.802 347.161 187.248 348.173 187.631C349.185 188.014 350.246 188.369 351.359 188.697C352.762 189.099 354.134 189.596 355.474 190.188C356.814 190.78 358.048 191.496 359.179 192.334C360.582 193.392 361.708 194.654 362.556 196.121C363.404 197.589 363.828 199.279 363.828 201.193C363.828 202.962 363.458 204.521 362.72 205.869C361.982 207.219 360.993 208.34 359.753 209.233C358.496 210.162 357.037 210.86 355.378 211.324C353.719 211.789 351.969 212.022 350.128 212.022C348.177 212.022 346.254 211.716 344.359 211.106C342.462 210.495 340.813 209.607 339.41 208.44C338.115 207.346 337.089 206.061 336.333 204.584C335.577 203.108 335.189 201.412 335.171 199.498H341.734C341.825 200.72 342.084 201.781 342.513 202.684C342.941 203.586 343.529 204.329 344.277 204.912C345.005 205.514 345.867 205.961 346.861 206.252C347.854 206.544 348.943 206.69 350.128 206.69C351.13 206.69 352.065 206.571 352.931 206.334C353.796 206.098 354.548 205.742 355.187 205.268C355.806 204.813 356.303 204.247 356.677 203.572C357.05 202.899 357.238 202.123 357.238 201.248C357.238 200.318 357.046 199.498 356.663 198.787Z" fill="white"/>
<path d="M378.074 184.514C378.547 184.022 379.048 183.594 379.577 183.229C380.398 182.627 381.304 182.167 382.298 181.848C383.291 181.53 384.344 181.369 385.456 181.369C387.005 181.369 388.423 181.598 389.708 182.053C390.994 182.509 392.091 183.22 393.003 184.186C393.914 185.153 394.62 186.387 395.122 187.891C395.623 189.395 395.874 191.196 395.874 193.291V211.502H389.339V193.237C389.339 192.143 389.206 191.186 388.943 190.365C388.678 189.545 388.29 188.88 387.781 188.369C387.251 187.822 386.609 187.417 385.853 187.153C385.096 186.889 384.226 186.756 383.242 186.756C382.476 186.756 381.751 186.848 381.068 187.029C380.384 187.212 379.759 187.477 379.195 187.822C378.72 188.096 378.279 188.424 377.869 188.807C377.458 189.19 377.098 189.618 376.788 190.092V211.502H370.253V169.502H376.788V186.127C377.171 185.544 377.599 185.006 378.074 184.514Z" fill="white"/>
<path d="M403.585 190.461C404.204 188.629 405.107 187.039 406.292 185.69C407.458 184.341 408.89 183.283 410.585 182.518C412.281 181.752 414.212 181.369 416.382 181.369C418.552 181.369 420.488 181.752 422.193 182.518C423.897 183.283 425.341 184.341 426.527 185.69C427.693 187.039 428.586 188.629 429.206 190.461C429.826 192.293 430.136 194.285 430.136 196.436V197.01C430.136 199.18 429.826 201.176 429.206 202.998C428.586 204.821 427.693 206.408 426.527 207.756C425.36 209.106 423.924 210.162 422.22 210.928C420.515 211.694 418.587 212.076 416.437 212.076C414.267 212.076 412.326 211.694 410.613 210.928C408.899 210.162 407.458 209.106 406.292 207.756C405.107 206.408 404.205 204.821 403.585 202.998C402.965 201.176 402.656 199.18 402.656 197.01V196.436C402.656 194.285 402.965 192.293 403.585 190.461ZM409.615 200.783C409.897 201.969 410.339 203.008 410.941 203.901C411.524 204.794 412.271 205.5 413.183 206.02C414.094 206.539 415.179 206.799 416.437 206.799C417.658 206.799 418.724 206.539 419.636 206.02C420.547 205.5 421.294 204.794 421.878 203.901C422.461 203.008 422.894 201.969 423.177 200.783C423.459 199.599 423.601 198.341 423.601 197.01V196.436C423.601 195.142 423.454 193.903 423.163 192.717C422.871 191.532 422.443 190.493 421.878 189.6C421.277 188.707 420.525 187.996 419.622 187.467C418.72 186.939 417.64 186.674 416.382 186.674C415.142 186.674 414.072 186.939 413.169 187.467C412.267 187.996 411.524 188.707 410.941 189.6C410.339 190.493 409.897 191.532 409.615 192.717C409.331 193.903 409.191 195.142 409.191 196.436V197.01C409.191 198.341 409.331 199.599 409.615 200.783Z" fill="white"/>
<path d="M437.519 181.916H443.534L443.781 184.951C444.181 184.459 444.618 184.013 445.093 183.612C445.567 183.211 446.077 182.865 446.624 182.573C447.335 182.19 448.114 181.894 448.962 181.684C449.81 181.475 450.726 181.369 451.71 181.369C453.606 181.369 455.279 181.735 456.728 182.463C458.177 183.193 459.394 184.223 460.378 185.553C461.363 186.884 462.105 188.475 462.607 190.324C463.108 192.175 463.359 194.212 463.359 196.436V197.01C463.359 199.143 463.108 201.13 462.607 202.971C462.105 204.813 461.363 206.399 460.378 207.729C459.394 209.078 458.181 210.135 456.741 210.901C455.301 211.666 453.652 212.049 451.792 212.049C450.735 212.049 449.764 211.94 448.88 211.721C447.995 211.502 447.18 211.184 446.433 210.764C445.995 210.509 445.575 210.217 445.175 209.889C444.774 209.561 444.4 209.205 444.054 208.822V222.877H437.519L437.519 181.916ZM456.427 192.676C456.162 191.5 455.757 190.475 455.21 189.6C454.645 188.725 453.925 188.032 453.05 187.522C452.175 187.012 451.126 186.756 449.906 186.756C449.231 186.756 448.602 186.829 448.019 186.975C447.435 187.121 446.915 187.33 446.46 187.604C445.931 187.896 445.471 188.26 445.079 188.698C444.687 189.135 444.345 189.627 444.054 190.174V203.327C444.309 203.837 444.618 204.307 444.984 204.735C445.348 205.163 445.767 205.524 446.241 205.815C446.734 206.107 447.289 206.339 447.909 206.512C448.529 206.686 449.222 206.772 449.988 206.772C451.191 206.772 452.225 206.512 453.091 205.993C453.956 205.473 454.672 204.767 455.238 203.874C455.784 202.962 456.185 201.918 456.441 200.743C456.696 199.567 456.823 198.323 456.823 197.01V196.436C456.823 195.106 456.691 193.852 456.427 192.676Z" fill="white"/>
<path d="M343.32 259.342L340.613 268.502H333.777L346.738 228.69H352.562L365.304 268.502H358.496L355.816 259.342H343.32ZM354.203 253.709L349.636 237.959L344.988 253.709H354.203Z" fill="white"/>
<path d="M392.662 238.588C393.656 238.735 394.435 238.907 395 239.108L394.071 245.561C393.068 245.342 392.078 245.178 391.104 245.068C390.128 244.959 389.158 244.904 388.192 244.904C387.098 244.904 386.114 245.014 385.239 245.232C384.364 245.451 383.588 245.789 382.914 246.244C382.185 246.682 381.565 247.238 381.055 247.912C380.544 248.587 380.116 249.361 379.77 250.236V268.502H373.235V238.916H379.36L379.633 243.018L379.66 243.701C380.863 242.043 382.308 240.739 383.994 239.791C385.68 238.844 387.544 238.369 389.586 238.369C390.643 238.369 391.668 238.442 392.662 238.588Z" fill="white"/>
<path d="M415.743 263.43C416.499 263.184 417.168 262.833 417.752 262.377C418.317 261.922 418.768 261.384 419.106 260.764C419.443 260.145 419.612 259.461 419.612 258.713H425.764C425.782 260.154 425.458 261.507 424.793 262.774C424.127 264.041 423.23 265.13 422.1 266.041C420.952 266.989 419.634 267.733 418.149 268.27C416.663 268.807 415.1 269.076 413.459 269.076C411.18 269.076 409.189 268.68 407.485 267.887C405.78 267.094 404.363 266.024 403.233 264.674C402.084 263.325 401.218 261.753 400.635 259.957C400.051 258.162 399.76 256.243 399.76 254.201V253.244C399.76 251.221 400.047 249.307 400.621 247.502C401.196 245.697 402.057 244.121 403.205 242.772C404.354 241.423 405.78 240.352 407.485 239.559C409.189 238.766 411.171 238.369 413.432 238.369C415.218 238.369 416.872 238.643 418.395 239.189C419.916 239.736 421.225 240.502 422.319 241.486C423.412 242.471 424.264 243.647 424.875 245.014C425.486 246.381 425.781 247.885 425.764 249.525H419.612C419.612 248.724 419.461 247.967 419.16 247.256C418.86 246.545 418.436 245.926 417.889 245.396C417.324 244.868 416.654 244.449 415.879 244.139C415.104 243.829 414.27 243.674 413.377 243.674C412.01 243.674 410.875 243.952 409.973 244.508C409.071 245.064 408.355 245.789 407.826 246.682C407.261 247.575 406.864 248.596 406.637 249.744C406.408 250.893 406.295 252.06 406.295 253.244V254.201C406.295 255.404 406.408 256.585 406.637 257.742C406.864 258.9 407.252 259.916 407.799 260.791C408.327 261.703 409.047 262.431 409.959 262.978C410.87 263.525 412.01 263.799 413.377 263.799C414.197 263.799 414.986 263.676 415.743 263.43Z" fill="white"/>
<path d="M441.924 241.514C442.398 241.022 442.899 240.594 443.428 240.229C444.248 239.627 445.155 239.167 446.149 238.848C447.142 238.53 448.195 238.369 449.307 238.369C450.856 238.369 452.274 238.598 453.559 239.053C454.844 239.509 455.942 240.22 456.854 241.186C457.765 242.153 458.471 243.387 458.973 244.891C459.474 246.395 459.725 248.196 459.725 250.291V268.502H453.19V250.237C453.19 249.143 453.057 248.186 452.793 247.365C452.529 246.545 452.141 245.88 451.631 245.369C451.102 244.822 450.459 244.417 449.703 244.153C448.947 243.889 448.076 243.756 447.092 243.756C446.327 243.756 445.602 243.848 444.918 244.029C444.235 244.212 443.61 244.477 443.045 244.822C442.571 245.096 442.129 245.424 441.719 245.807C441.309 246.19 440.949 246.618 440.639 247.092V268.502H434.104V226.502H440.639V243.127C441.022 242.544 441.449 242.006 441.924 241.514Z" fill="white"/>
<path d="M484.349 238.916V263.088H493.044V268.502H468.654V263.088H477.759V244.358H468.654V238.916H484.349ZM477.431 229.797C477.613 229.351 477.877 228.963 478.224 228.635C478.552 228.325 478.949 228.084 479.413 227.91C479.878 227.738 480.402 227.651 480.986 227.651C481.97 227.651 482.767 227.902 483.378 228.403C483.989 228.905 484.339 229.547 484.431 230.33C484.558 231.133 484.421 231.83 484.021 232.422C483.619 233.015 483.036 233.411 482.271 233.612C481.888 233.958 481.432 234.186 480.904 234.295C480.374 234.405 479.791 234.36 479.154 234.159C478.497 233.958 478 233.598 477.663 233.078C477.326 232.559 477.158 231.953 477.158 231.26C477.158 230.732 477.248 230.244 477.431 229.797Z" fill="white"/>
<path d="M495.987 238.916H502.768L510.096 260.381L510.533 262.35L510.971 260.381L518.217 238.916H524.998L513.404 268.502H507.635L495.987 238.916Z" fill="white"/>
<path d="M538.247 267.955C536.433 267.227 534.879 266.215 533.585 264.92C532.29 263.645 531.292 262.136 530.591 260.395C529.889 258.654 529.538 256.772 529.538 254.748V253.627C529.538 251.313 529.903 249.216 530.632 247.338C531.361 245.461 532.364 243.856 533.64 242.525C534.915 241.195 536.397 240.17 538.083 239.449C539.769 238.73 541.57 238.369 543.484 238.369C545.617 238.369 547.503 238.73 549.144 239.449C550.785 240.17 552.161 241.168 553.273 242.443C554.384 243.738 555.223 245.278 555.789 247.064C556.353 248.852 556.636 250.802 556.636 252.916V255.732H536.128V255.869C536.329 257.164 536.638 258.248 537.058 259.123C537.477 259.998 538.051 260.782 538.781 261.475C539.509 262.204 540.371 262.77 541.365 263.17C542.358 263.571 543.447 263.771 544.632 263.771C546.255 263.771 547.767 263.457 549.172 262.828C550.575 262.199 551.732 261.302 552.644 260.135L556.144 263.525C555.16 264.947 553.651 266.223 551.619 267.353C549.586 268.484 547.13 269.049 544.25 269.049C542.062 269.049 540.061 268.684 538.247 267.955ZM540.872 244.18C540.079 244.518 539.372 244.996 538.753 245.615C538.133 246.254 537.614 247.02 537.195 247.912C536.775 248.806 536.465 249.817 536.265 250.947H550.183V250.51C550.183 249.653 550.028 248.801 549.718 247.953C549.408 247.106 548.97 246.364 548.406 245.725C547.859 245.106 547.17 244.609 546.341 244.235C545.511 243.862 544.55 243.674 543.456 243.674C542.527 243.674 541.665 243.843 540.872 244.18Z" fill="white"/>
</svg>
